<?xml version="1.0" encoding="UTF-8" standalone="no"?>
<svg
   xmlns:osb="http://www.openswatchbook.org/uri/2009/osb"
   xmlns:dc="http://purl.org/dc/elements/1.1/"
   xmlns:cc="http://creativecommons.org/ns#"
   xmlns:rdf="http://www.w3.org/1999/02/22-rdf-syntax-ns#"
   xmlns:svg="http://www.w3.org/2000/svg"
   xmlns="http://www.w3.org/2000/svg"
   xmlns:xlink="http://www.w3.org/1999/xlink"
   xmlns:sodipodi="http://sodipodi.sourceforge.net/DTD/sodipodi-0.dtd"
   xmlns:inkscape="http://www.inkscape.org/namespaces/inkscape"
   width="210mm"
   height="297mm"
   viewBox="0 0 210 297"
   version="1.1"
   id="svg8"
   inkscape:version="1.0.1 (3bc2e813f5, 2020-09-07)"
   sodipodi:docname="tekeningheks.svg">
  <defs
     id="defs2">
    <linearGradient
       id="linearGradient834"
       osb:paint="solid">
      <stop
         style="stop-color:#000000;stop-opacity:1;"
         offset="0"
         id="stop832" />
    </linearGradient>
    <linearGradient
       inkscape:collect="always"
       xlink:href="#linearGradient834"
       id="linearGradient836"
       x1="121.35352"
       y1="454.46723"
       x2="682.52302"
       y2="454.46723"
       gradientUnits="userSpaceOnUse"
       gradientTransform="matrix(0.26458333,0,0,0.26458333,65.65387,28.702539)" />
  </defs>
  <sodipodi:namedview
     id="base"
     pagecolor="#ffffff"
     bordercolor="#666666"
     borderopacity="1.0"
     inkscape:pageopacity="0.0"
     inkscape:pageshadow="2"
     inkscape:zoom="0.98994949"
     inkscape:cx="628.38637"
     inkscape:cy="461.67759"
     inkscape:document-units="mm"
     inkscape:current-layer="layer1"
     inkscape:document-rotation="0"
     showgrid="false"
     inkscape:window-width="1920"
     inkscape:window-height="1001"
     inkscape:window-x="-9"
     inkscape:window-y="-9"
     inkscape:window-maximized="1" />
  <metadata
     id="metadata5">
    <rdf:RDF>
      <cc:Work
         rdf:about="">
        <dc:format>image/svg+xml</dc:format>
        <dc:type
           rdf:resource="http://purl.org/dc/dcmitype/StillImage" />
        <dc:title />
      </cc:Work>
    </rdf:RDF>
  </metadata>
  <g
     inkscape:label="Laag 1"
     inkscape:groupmode="layer"
     id="layer1">
    <path
       id="path40"
       style="fill:#000000;stroke-width:0.452808"
       d="m 69.512227,54.012325 c -0.712999,0.01156 -1.185497,0.07468 -1.252635,0.187069 -0.132987,0.222612 0.759915,1.472448 1.984375,2.777609 2.46602,2.62854 3.405106,5.198573 1.720826,4.709273 -0.520917,-0.151331 -2.449684,-0.514233 -4.286043,-0.806153 -1.836362,-0.291928 -3.639204,-0.778764 -4.006475,-1.082104 -0.596696,-0.492829 -3.994533,-1.418767 -3.528983,-0.961699 0.104569,0.102671 1.49202,0.751236 3.083534,1.441257 5.637289,2.444109 5.48305,2.22256 1.780767,2.5616 -1.836359,0.168161 -4.941567,0.335587 -6.900352,0.372586 -3.725621,0.07035 -5.591053,0.639157 -4.073138,1.241785 0.439187,0.174302 4.296973,0.217302 8.573121,0.0956 4.276148,-0.121708 7.84864,-0.09708 7.939051,0.05426 0.09041,0.151349 -3.218905,1.192985 -7.354591,2.315104 -4.135689,1.122111 -7.443949,2.118635 -7.351488,2.214335 0.09247,0.09566 1.814436,-0.149244 3.82664,-0.544153 2.012206,-0.394901 4.412482,-0.717785 5.334039,-0.717785 0.921563,0 2.527298,-0.310944 3.568258,-0.690915 2.318806,-0.846428 2.379126,-0.847825 2.081528,-0.04547 -0.142357,0.383789 0.109035,0.739712 0.620117,0.877983 0.472752,0.1279 0.856229,0.407451 0.851628,0.621149 -0.0046,0.213702 -3.517607,1.727891 -7.806759,3.365169 -7.999447,3.053591 -9.006893,3.503153 -8.643916,3.855062 0.115331,0.11182 2.914327,-0.881727 6.219774,-2.207618 10.369309,-4.159369 11.970414,-3.763409 3.469556,0.85783 -5.701573,3.09948 -7.837858,4.595098 -7.171137,5.0214 0.647231,0.41384 5.528963,-2.10208 8.342124,-4.299479 1.578756,-1.233181 3.084526,-1.999533 4.245221,-2.160593 0.989216,-0.137319 1.798339,-0.113631 1.798339,0.05271 0,0.166331 -0.691507,1.723057 -1.536856,3.459737 -0.845349,1.736669 -1.417969,3.281103 -1.272276,3.431834 0.483741,0.500469 -0.76009,1.573921 -3.219442,2.77864 -1.365427,0.668851 -2.429825,1.495664 -2.429825,1.887223 0,0.959361 -0.424296,0.874395 -1.696021,-0.339513 l -1.08572,-1.036114 0.328662,1.103291 c 0.317662,1.067062 0.269206,1.093918 -1.463995,0.807189 -0.985829,-0.163092 -2.160288,-0.426091 -2.610175,-0.584462 -0.614334,-0.21626 -0.568825,-0.09527 0.183451,0.485759 1.464943,1.13148 1.231091,1.642276 -0.752409,1.642276 -0.964943,0 -1.847617,0.155737 -1.96112,0.345716 -0.113507,0.189939 0.70159,0.2702 1.811258,0.1788 1.398754,-0.115221 1.923928,-0.009 1.712039,0.345715 -0.168095,0.28139 -0.582501,0.511598 -0.920872,0.511598 -0.338373,0 -0.752334,0.229645 -0.919842,0.510045 -0.211738,0.35445 0.119507,0.41306 1.086757,0.193271 0.765144,-0.173871 1.391129,-0.128511 1.391129,0.100769 0,0.519311 -1.773261,2.215819 -2.671156,2.555399 -1.524215,0.57645 0.806286,0.3073 2.850472,-0.329179 2.21361,-0.68924 2.171671,-0.712454 2.628781,1.442807 0.174951,0.824889 -0.213516,1.303764 -2.03967,2.516124 -1.811986,1.202949 -2.83128,1.535364 -5.183661,1.690334 -2.622785,0.17278 -3.18353,0.39585 -5.37745,2.13786 -1.347189,1.069684 -3.951917,3.001784 -5.788276,4.293274 -5.028046,3.53616 -8.45248,7.02845 -8.487339,8.65581 -0.01572,0.73416 -0.281797,2.57656 -0.591177,4.09484 l -0.562239,2.76055 1.698085,0.59428 c 1.694172,0.59248 1.70666,0.58771 4.971275,-1.9544 1.800037,-1.40166 3.405383,-2.54868 3.567223,-2.54868 0.566217,0 0.286375,1.02124 -0.674894,2.46186 l -0.969451,1.45314 1.191659,-1.11672 c 1.058386,-0.99143 1.192176,-1.02197 1.192176,-0.27389 0,0.78706 0.05339,0.79215 0.813903,0.0801 1.050293,-0.98332 1.44939,-0.96772 1.128096,0.0439 -0.14079,0.4433 0.171839,0.11706 0.69505,-0.72502 l 0.951362,-1.53117 1.428337,0.863 c 1.647942,0.99573 3.483451,4.46163 4.277257,8.07702 l 0.529685,2.41226 7.330303,3.91397 c 6.785398,3.62272 7.330818,4.00769 7.330818,5.18108 0,1.22173 -0.08474,1.26824 -2.337327,1.27124 -1.285451,0.002 -3.639174,0.12985 -5.230688,0.28474 l -2.89388,0.28163 -0.995804,-2.127 c -1.21942,-2.60467 -1.89756,-2.71794 -1.89756,-0.31626 0,1.37848 -0.203287,1.87828 -0.850593,2.09083 -1.000623,0.32857 -2.101972,1.94109 -2.529562,3.70365 -0.386287,1.59231 -3.023307,2.85369 -6.414077,3.06803 -1.608529,0.10168 -2.433238,0.35143 -2.403988,0.72812 0.02447,0.31535 0.07489,1.20255 0.111619,1.97146 0.08153,1.70692 0.402164,1.86315 13.867371,6.76496 10.509215,3.82572 12.099716,4.07618 18.474841,2.91145 1.713939,-0.31309 3.917465,-0.49771 4.89686,-0.41031 1.561674,0.13939 1.78077,0.30071 1.78077,1.31051 0,0.85474 -0.266774,1.19061 -1.035597,1.30328 -0.681109,0.0998 -0.952812,0.37592 -0.793232,0.80615 0.311193,0.839 0.179666,0.82464 -1.595768,-0.17363 -1.247516,-0.70144 -2.181841,-0.78928 -6.117973,-0.57567 l -4.645195,0.25166 -1.292428,2.30322 c -0.710962,1.26657 -1.850041,2.92459 -2.53111,3.68453 -0.681075,0.75994 -1.359266,2.05511 -1.507403,2.87838 -0.148116,0.82327 -0.223107,1.49706 -0.166397,1.49706 0.05667,0 0.802945,-0.23274 1.658295,-0.51676 0.855353,-0.28406 3.258002,-0.54976 5.33921,-0.59066 3.72365,-0.0731 3.810732,-0.10127 5.478219,-1.77974 1.750168,-1.76169 4.216471,-2.8132 4.960937,-2.11512 0.232606,0.21811 0.883788,0.39636 1.44694,0.39636 1.198671,0 1.278993,0.32687 0.342614,1.39733 -0.37483,0.42851 -0.800661,1.89563 -0.946195,3.26027 -0.211661,1.98471 -0.567166,2.80961 -1.776118,4.12223 l -1.51102,1.64124 0.29559,3.9796 0.29559,3.98012 -1.622124,2.8174 c -0.892233,1.54958 -1.622123,3.02302 -1.622123,3.27422 0,0.25122 0.650666,0.39204 1.446422,0.31264 1.338207,-0.13348 1.44694,-0.26864 1.44694,-1.8004 0,-1.86234 0.832538,-3.18017 2.009179,-3.18017 0.57558,0 0.843238,-0.46409 0.996323,-1.72703 0.115144,-0.94992 0.02008,-1.97651 -0.211357,-2.28151 -0.47067,-0.62032 0.703302,-5.4258 1.440738,-5.89732 0.241631,-0.1545 0.439767,-0.68515 0.439767,-1.17925 0,-0.94368 3.541808,-6.85078 4.117578,-6.86728 0.615421,-0.0177 0.356695,2.94776 -0.629417,7.21247 l -0.97772,4.22869 2.083593,2.52336 c 2.382206,2.88482 2.583112,4.12637 1.161688,7.1701 -1.023522,2.1917 -1.035375,2.12368 0.492993,2.75487 2.022406,0.83521 2.654617,0.39939 2.654617,-1.82934 0,-0.4859 0.166754,-0.88367 0.37052,-0.88367 0.203769,0 0.594794,-0.75518 0.868683,-1.67845 0.578387,-1.94972 0.156882,-3.04552 -2.651001,-6.89312 -2.224378,-3.04804 -1.986153,-3.86519 1.125511,-3.8592 1.497976,0.003 3.112971,0.40097 4.671034,1.15136 1.309764,0.63081 2.561722,1.14721 2.782257,1.14721 1.493618,0 -0.979688,-4.86804 -4.510317,-8.87749 -2.216912,-2.51758 -2.64622,-3.24624 -2.224154,-3.77238 0.2877,-0.35861 0.793208,-0.54504 1.123445,-0.41393 0.330239,0.1311 0.994592,0.0203 1.476396,-0.2465 0.715362,-0.39609 0.916903,-0.32315 1.099158,0.39791 0.122754,0.48564 0.946193,1.1957 1.829861,1.57768 0.883666,0.38199 1.629355,0.8606 1.657266,1.0635 0.02788,0.20292 0.114882,0.91679 0.192751,1.58699 0.271802,2.33912 2.130172,5.65565 3.318142,5.92108 0.76159,0.17018 1.4082,0.8817 2.04793,2.25413 l 0.93483,2.00556 0.2589,-1.33893 c 0.18594,-0.96188 0.538,-1.36044 1.25057,-1.41594 1.67814,-0.13075 2.53216,0.68091 2.8913,2.74867 0.33836,1.94822 0.34444,1.95388 0.79375,0.69712 0.24904,-0.69661 0.6278,-1.26659 0.84129,-1.26659 0.21349,0 1.42642,1.1134 2.69596,2.47427 1.26955,1.36086 2.77454,2.72389 3.34398,3.02875 0.97656,0.5228 1.00608,0.4976 0.52038,-0.44132 -0.28318,-0.5475 -0.44842,-1.05067 -0.36742,-1.11828 0.0811,-0.0676 0.52856,-0.33501 0.99477,-0.59427 0.80146,-0.44569 0.78365,-0.51484 -0.32607,-1.26711 -0.64555,-0.43759 -1.61044,-1.55159 -2.14406,-2.4753 -1.39341,-2.41205 -2.64901,-3.75171 -3.51606,-3.75171 -0.86763,0 -1.4007,-2.793 -1.00924,-5.28857 0.12968,-0.8268 0.0423,-1.6269 -0.19431,-1.77818 -0.49309,-0.31528 -0.17154,-5.01533 0.36794,-5.379 0.1963,-0.13235 0.41884,-4.51975 0.49454,-9.74979 0.12936,-8.93726 0.33126,-10.68639 1.13895,-9.85367 0.18364,0.18933 0.43413,4.76664 0.55655,10.17199 0.12243,5.40535 0.37292,9.98266 0.55656,10.17199 0.18363,0.18933 0.33383,0.0109 0.33383,-0.39636 0,-0.40723 0.17759,-0.85381 0.39481,-0.9927 0.21722,-0.1389 0.76403,2.65986 1.21491,6.21978 0.45088,3.5599 0.85794,6.30402 0.90434,6.09781 0.0464,-0.20621 0.22461,-1.20366 0.39635,-2.21692 0.25893,-1.52757 0.37378,-1.68518 0.67283,-0.92139 0.24954,0.63733 0.37066,0.11336 0.39223,-1.70015 0.0172,-1.4416 -0.13417,-2.72684 -0.33642,-2.85616 -0.95793,-0.61251 0.2238,-15.47864 1.23042,-15.47864 0.16592,0 0.53992,3.36795 0.83096,7.4843 0.84377,11.93362 1.45168,16.53627 2.30993,17.48937 0.72179,0.80154 0.77391,0.65341 1.04645,-2.96881 0.15776,-2.09673 0.28839,-5.93638 0.28939,-8.53281 0.002,-4.15148 0.33974,-5.56169 1.04645,-4.37545 0.11319,0.18998 0.631,2.93605 1.15083,6.10247 0.51983,3.16643 1.20828,6.79341 1.53014,8.05998 0.56912,2.23964 0.54987,2.35622 -0.69556,4.25193 l -1.28055,1.94924 1.33532,-0.27647 c 2.72558,-0.56397 3.49709,0.0211 4.08141,3.09387 0.6142,3.22986 1.08272,2.90107 1.52858,-1.07332 0.29603,-2.63873 0.35323,-2.73322 2.25,-3.6866 1.07058,-0.53811 2.02273,-0.88728 2.11563,-0.77618 0.0929,0.11111 0.55346,1.84038 1.02319,3.84266 0.69169,2.94834 1.02647,3.66732 1.76062,3.78323 l 0.9064,0.14315 -0.83819,-4.88549 -0.83819,-4.88601 2.81378,-2.6448 c 2.9742,-2.79567 3.16028,-2.79012 3.66334,0.10904 0.16297,0.93919 0.58403,2.28063 0.93535,2.98121 0.35131,0.70058 0.76694,2.16041 0.92397,3.24373 0.15702,1.08332 0.35022,1.96939 0.42892,1.96939 0.0787,0 0.66321,-0.2046 1.29914,-0.45475 1.09903,-0.4323 1.1249,-0.51765 0.52348,-1.72703 -0.92631,-1.86273 -2.98647,-13.15666 -2.27014,-12.44523 0.18908,0.18775 0.59245,0.12837 0.89607,-0.1323 0.43247,-0.37133 0.30129,-1.26486 -0.60513,-4.12533 -0.63636,-2.00823 -1.04036,-3.77249 -0.89762,-3.92017 0.14274,-0.14765 0.80542,-0.12678 1.47278,0.0465 1.52678,0.39644 2.42315,2.48535 2.9471,6.86883 0.54681,4.57484 1.79358,10.36267 2.23242,10.36267 0.51597,0 2.17093,3.45393 2.17093,4.53099 0,0.92307 1.17542,2.23611 1.60455,1.79214 0.13635,-0.14106 0.0316,-0.67533 -0.23306,-1.187 -0.26468,-0.51168 -0.48431,-2.03205 -0.4873,-3.37861 -0.004,-1.56584 -0.49985,-3.85909 -1.37615,-6.36292 -1.46053,-4.17317 -2.79829,-10.10624 -2.37711,-10.54199 0.13987,-0.1447 1.4434,0.18506 2.89698,0.73277 1.45357,0.5477 2.64273,0.81905 2.64273,0.60306 0,-0.21599 0.60129,-0.5292 1.33584,-0.69608 1.36906,-0.31109 1.86125,-1.15187 0.67437,-1.15187 -0.80626,0 -9.24326,-4.52888 -9.63558,-5.17229 -0.15421,-0.25288 -0.40275,-1.38095 -0.55191,-2.50682 -0.14916,-1.12586 -0.94207,-3.43397 -1.76217,-5.12889 -0.9659,-1.99629 -1.59082,-4.08106 -1.77456,-5.91953 -0.156,-1.56092 -0.78954,-4.2283 -1.40767,-5.92729 -1.06889,-2.93797 -1.54788,-6.42757 -0.75344,-5.48907 0.20371,0.24065 0.81368,1.57714 1.35547,2.97036 0.54178,1.39323 2.061,4.39833 3.37602,6.67815 1.31501,2.27983 3.34647,6.69345 4.51446,9.80767 2.13851,5.70203 2.46824,6.00738 3.02358,2.80344 0.24447,-1.41046 0.0529,-2.02906 -1.24436,-4.02353 -0.84315,-1.29623 -1.95761,-3.53132 -2.47686,-4.96713 -1.06366,-2.94118 -1.99114,-7.02565 -1.6707,-7.35718 0.28308,-0.29286 4.21031,4.85963 6.47196,8.49096 2.7653,4.43999 5.6463,10.82512 7.5861,16.81396 0.96326,2.97391 1.87704,5.41582 2.03089,5.42602 1.207,0.0803 1.27127,-0.499 0.34674,-3.12229 -0.53885,-1.52894 -0.97978,-3.09043 -0.97978,-3.46955 0,-0.37911 -0.70109,-2.05621 -1.55805,-3.72691 -0.85697,-1.6707 -1.55804,-3.4227 -1.55804,-3.89382 0,-0.47111 -1.10824,-2.66407 -2.4629,-4.87308 -3.48823,-5.68819 -6.87206,-14.58671 -5.54695,-14.58671 1.80856,0 7.28253,6.11432 8.22534,9.18755 0.14754,0.48092 1.26564,1.53704 2.48512,2.34663 1.21947,0.80959 2.86355,2.40667 3.65352,3.54914 l 1.43661,2.07739 0.14314,-1.49397 c 0.12574,-1.31083 -0.16169,-1.7752 -2.34663,-3.78994 -1.36943,-1.26276 -2.43524,-2.54449 -2.36884,-2.84841 0.0664,-0.30391 -1.26546,-1.88958 -2.95951,-3.52382 -3.03383,-2.92671 -7.15768,-8.19258 -6.74791,-8.61652 0.11539,-0.11943 0.87136,0.20306 1.68,0.71675 0.80863,0.51368 2.58361,1.23278 3.94446,1.59783 1.97188,0.52897 2.89245,1.1214 4.53461,2.91817 l 2.06086,2.25464 -0.24392,-2.07274 c -0.13399,-1.13991 -0.54385,-2.27935 -0.91105,-2.53266 -0.36721,-0.25331 -1.51702,-1.02977 -2.55488,-1.72496 -1.03786,-0.69519 -3.2454,-2.55196 -4.90617,-4.12636 l -3.01997,-2.86236 1.26659,-0.35088 c 1.842,-0.50966 9.07518,0.37826 11.85871,1.45572 3.47512,1.34517 5.90181,3.37447 7.16029,5.98723 l 1.08985,2.26343 0.99477,-1.09554 c 0.74056,-0.81555 1.0526,-1.84459 1.22215,-4.02973 0.28494,-3.67292 -0.3006,-4.9505 -5.01881,-10.9461 -3.49936,-4.44679 -9.33822,-12.46422 -18.44694,-25.331273 -5.4312,-7.67216 -6.80014,-9.120658 -13.61467,-14.404287 -2.43312,-1.886521 -5.2706,-4.251354 -6.30556,-5.255493 -2.0114,-1.951511 -7.68432,-5.041034 -11.69644,-6.370156 -3.72292,-1.233318 -6.96126,-3.06189 -11.12387,-6.281269 l -3.77807,-2.922301 -7.35097,-0.954464 c -6.310809,-0.819491 -7.556073,-0.867941 -8.797389,-0.340032 -1.176668,0.50042 -3.207745,0.524717 -10.906829,0.129707 -5.203515,-0.266949 -11.129007,-0.638876 -13.167672,-0.826275 -1.029152,-0.09463 -1.982409,-0.134549 -2.695443,-0.122992 z m 24.932331,14.874544 c 0.225279,0.02492 0.507891,0.291733 1.054716,0.823206 1.063466,1.033651 1.531244,2.76624 0.746723,2.76624 -0.203224,0 -0.732457,6.032119 -1.176155,13.40435 -0.648748,10.779001 -0.696471,13.474691 -0.242364,13.765051 0.451112,0.28844 0.461267,1.274744 0.04961,4.903584 -0.283419,2.49841 -0.786495,7.61025 -1.117762,11.35951 -0.331266,3.74925 -0.725643,6.94433 -0.876432,7.10034 -0.150789,0.156 -0.273883,-5.45032 -0.273883,-12.45867 0,-7.00836 -0.161224,-12.742374 -0.358119,-12.742374 -0.615828,0 -1.365507,-16.076798 -0.891934,-19.127518 0.234809,-1.512541 0.330009,-3.530314 0.211873,-4.483965 -0.170482,-1.376159 -0.03966,-1.830454 0.634068,-2.203482 0.466876,-0.258511 0.855197,-0.722183 0.862997,-1.029912 0.0078,-0.307729 0.306861,-0.959818 0.664559,-1.449006 0.318614,-0.435737 0.486823,-0.652272 0.712103,-0.627354 z m 11.727962,1.5875 c 0.0269,0.0021 0.0542,0.0093 0.0817,0.02016 0.33659,0.13363 0.60048,0.908391 0.60048,1.763201 0,1.887149 0.3816,2.977817 1.04903,2.996716 0.27987,0.0079 1.51051,0.524166 2.73471,1.147218 1.22424,0.623048 2.56962,1.13488 2.98949,1.13688 1.22253,0.0067 1.5858,1.312791 1.75183,6.29884 0.11913,3.5775 0.0309,4.57513 -0.37311,4.22765 -0.72798,-0.6262 -1.91978,1.834105 -1.91978,3.963064 0,1.08667 -0.20676,1.634527 -0.61701,1.634527 -0.39023,0 -0.72784,0.762392 -0.91778,2.072741 -0.16523,1.13991 -0.45795,2.07274 -0.6506,2.07274 -0.19266,0 -0.67437,1.03869 -1.07074,2.308394 -0.39636,1.2697 -1.22823,2.83358 -1.84846,3.47524 -0.69788,0.72202 -1.12758,1.68535 -1.12758,2.5275 0,0.74842 -0.18173,1.36063 -0.4036,1.36063 -0.22187,0 -0.54103,1.03691 -0.70951,2.30426 -0.16848,1.26734 -0.56873,2.4592 -0.88936,2.64841 -0.32063,0.18921 -0.65715,0.86224 -0.74775,1.49552 -0.0918,0.64202 -0.42037,1.09566 -0.74259,1.02526 -0.33902,-0.074 -1.15223,1.21094 -1.96732,3.10885 -0.76411,1.77926 -1.551058,3.23495 -1.74873,3.23495 -0.726483,0 -0.294871,-2.54418 2.71094,-15.98145 1.77495,-7.934754 3.11105,-14.988724 3.16725,-16.719403 0.12446,-3.834961 0.10093,-3.978346 -0.54519,-3.309874 -0.78305,0.810088 -2.09021,6.813598 -2.11201,9.699149 -0.0155,2.052704 -0.12393,2.384574 -0.63459,1.946134 -0.50321,-0.43208 -0.66944,-0.15582 -0.91157,1.51464 -0.16363,1.1289 -0.58545,2.158334 -0.94258,2.300124 -0.398568,0.15824 -0.658194,0.92445 -0.677474,1.99832 -0.02927,1.62927 -0.719984,4.13653 -0.860411,3.12333 -0.03511,-0.25331 -0.500005,0.87377 -1.033013,2.50475 -0.533006,1.63099 -1.251757,3.05794 -1.5968,3.17139 -0.453253,0.14901 -0.539242,-0.0312 -0.31006,-0.64906 0.365252,-0.98474 1.593318,-12.491584 1.600419,-14.995472 0.0028,-0.999611 0.253873,-1.776754 0.620634,-1.922364 0.415173,-0.16482 0.671824,-1.268064 0.788066,-3.388424 0.11158,-2.03531 0.506103,-3.793638 1.118789,-4.986258 3.52757,-6.866519 4.19997,-8.484063 4.87257,-11.722282 0.51553,-2.481974 0.86826,-3.439486 1.27176,-3.405995 z m -29.196664,2.456183 c 0.289854,0.0093 0.503505,0.389541 0.350367,1.042829 -0.133604,0.56996 -0.389009,1.658001 -0.567407,2.417939 -0.295511,1.258793 -0.25704,1.324814 0.428397,0.740524 0.887719,-0.756729 1.228119,-0.490376 1.890324,1.480013 0.434186,1.291932 0.351604,1.680279 -0.703316,3.30626 -1.996474,3.077239 -2.031688,3.272613 -0.352435,1.957501 0.889502,-0.696619 1.707774,-1.266589 1.817978,-1.266589 0.564031,0 0.598763,2.115272 0.06925,4.191992 -0.588687,2.308751 -0.584295,2.332027 0.26665,1.535308 0.475236,-0.44495 0.958678,-0.710859 1.074353,-0.59118 0.115674,0.119671 0.525143,2.55305 0.910022,5.407941 0.496689,3.684226 0.572796,5.614626 0.261998,6.650236 -0.240837,0.802484 -1.888159,8.764694 -3.660756,17.694014 -1.772603,8.92932 -3.338545,16.22927 -3.479893,16.22227 -0.141343,-0.007 -2.239846,-4.61822 -4.663281,-10.24744 -2.423435,-5.62922 -4.695645,-10.89932 -5.049303,-11.71091 -0.911686,-2.09224 -1.420813,-2.4018 -4.494816,-2.7342 -2.592649,-0.28036 -2.716382,-0.34973 -2.466001,-1.38183 0.309486,-1.27571 -0.111117,-1.38502 -1.244367,-0.32401 -0.764776,0.71604 -0.814422,0.70188 -0.814422,-0.23048 0,-1.22144 -0.01905,-1.22142 -2.02003,0 -0.894276,0.54591 -1.757387,0.80492 -1.917714,0.57568 -0.160321,-0.22923 -0.992531,-0.40486 -1.849498,-0.39016 -0.85697,0.0147 -1.681816,-0.16005 -1.832965,-0.38861 -0.480298,-0.72631 -2.93661,0.96128 -4.893757,3.36259 -1.706012,2.09319 -3.023436,2.78385 -2.733167,1.43247 0.162425,-0.75618 -1.022865,-0.63369 -1.669666,0.1726 -0.705294,0.87919 -1.780767,0.89518 -1.780767,0.0264 0,-0.36549 0.412773,-1.38749 0.916738,-2.27118 1.283023,-2.24975 13.604113,-10.816994 15.908073,-11.061344 0.907775,-0.0963 2.301214,-0.32835 3.096969,-0.51573 1.173845,-0.27641 1.44694,-0.19946 1.44694,0.40773 0,0.94594 0.611423,0.96072 1.35599,0.0326 0.695761,-0.86732 2.241402,-1.7705 2.15904,-1.26143 -0.152803,0.94455 0.144549,1.02726 1.359609,0.37724 1.643237,-0.87916 2.248439,-0.88856 2.248439,-0.0351 0,0.86659 -2.688984,3.472244 -3.585826,3.475244 -0.380455,10e-4 -1.379577,0.73688 -2.220537,1.63453 -1.268082,1.35356 -1.416158,1.70604 -0.866613,2.0655 0.816723,0.53423 2.250088,0.56007 3.01997,0.0548 0.317047,-0.20807 1.238215,-0.16419 2.046904,0.0977 1.373002,0.44458 2.034542,1.208 2.751253,3.17345 0.161648,0.4433 0.471006,0.80615 0.687295,0.80615 0.216292,0 0.393258,0.31792 0.393258,0.70642 0,0.38851 0.550916,1.30291 1.224214,2.03192 1.927704,2.08708 2.337327,2.69718 2.337327,3.48454 0,0.4044 0.603168,1.39808 1.340487,2.20761 l 1.340485,1.47175 -0.268716,-1.61231 c -0.426765,-2.55835 -1.108818,-4.7167 -2.000911,-6.33242 l -0.826823,-1.49707 h 1.12758 c 0.619958,0 1.53226,-0.22407 2.027264,-0.49816 0.762106,-0.42197 1.098426,-0.26809 2.196251,1.00407 l 1.296561,1.50224 v -1.3932 c 0,-0.80282 -0.372552,-1.74224 -0.879533,-2.21692 -0.483923,-0.45308 -0.764389,-1.01735 -0.623218,-1.25367 0.141166,-0.23633 0.368289,-0.31391 0.504878,-0.1726 0.136591,0.14132 0.520578,0.0231 0.853178,-0.26252 0.490016,-0.4207 0.18125,-0.98258 -1.628325,-2.96209 -1.228217,-1.34361 -2.233531,-2.71451 -2.23397,-3.04633 -5.29e-4,-0.331804 -0.92188,-1.204764 -2.047423,-1.940444 -1.12554,-0.73569 -2.84717,-2.394232 -3.825605,-3.685052 -0.978439,-1.29083 -2.160741,-2.53393 -2.62723,-2.76262 -0.558282,-0.273701 -0.848011,-0.891135 -0.848011,-1.807125 v -1.391648 l 1.075388,1.044898 c 0.727528,0.707099 1.36701,0.948608 1.97869,0.747757 0.765413,-0.25133 0.950293,-0.04066 1.206645,1.373045 0.215839,1.190368 0.440224,1.527008 0.781349,1.174089 0.775369,-0.802212 1.190625,-0.572895 1.190625,0.656806 -3e-6,0.844371 0.237453,1.151351 0.890384,1.151351 0.489696,0 0.890384,0.207126 0.890384,0.460436 0,0.25332 0.300389,0.460438 0.66766,0.460438 0.367273,0 0.66766,0.297019 0.66766,0.659908 0,0.362907 0.400687,0.791597 0.890384,0.952397 0.489696,0.1608 0.890386,0.6928 0.890386,1.18236 0,0.48955 0.283583,0.88986 0.630452,0.88986 0.346866,0 0.832059,0.56998 1.07797,1.266594 0.318818,0.90311 0.457081,1.0185 0.48214,0.40205 0.03724,-0.915864 -2.906768,-7.490179 -3.533632,-7.890999 -0.203047,-0.129829 -0.500742,-0.855263 -0.661458,-1.612305 -0.200718,-0.945459 -0.559935,-1.376659 -1.147218,-1.376659 -0.641556,0 -0.854728,-0.324821 -0.854728,-1.301729 0,-1.198591 -0.111665,-1.284983 -1.403533,-1.088824 -1.254463,0.190482 -1.376733,0.108379 -1.154451,-0.771011 0.166875,-0.660191 0.04295,-0.983404 -0.377238,-0.983404 -0.814649,0 -0.805439,-1.114985 0.01498,-1.819526 0.352692,-0.30285 0.530971,-0.849042 0.39584,-1.213363 -0.165735,-0.446831 -0.03032,-0.576826 0.416513,-0.39946 0.4509,0.179012 0.757007,-0.126582 0.958598,-0.957564 0.198496,-0.8182 0.510125,-1.135968 0.945161,-0.963248 0.392369,0.155779 0.649057,-0.01773 0.649057,-0.438732 0,-0.383082 0.500991,-1.255413 1.11311,-1.938385 0.628441,-0.701177 1.11311,-1.795184 1.11311,-2.513023 0,-0.779581 0.239832,-1.271241 0.620117,-1.271241 0.34108,0 0.735494,-0.310943 0.876433,-0.690914 0.180779,-0.487392 0.452038,-0.704339 0.677478,-0.697114 z m 5.215186,0.06666 c 0.07372,0.0024 0.151495,0.01005 0.233061,0.02273 0.873863,0.1358 0.963557,0.483852 1.132229,4.407482 0.100721,2.343161 0.08465,4.260205 -0.03566,4.260205 -0.343991,0 -1.44589,-2.781078 -2.046388,-5.165058 -0.613921,-2.437286 -0.389115,-3.56148 0.716753,-3.525367 z m 6.497278,0.23151 c 0.254637,-0.02135 0.47271,0.304213 0.719336,1.036111 0.251534,0.746511 0.374565,1.443022 0.273367,1.547709 -0.514093,0.531892 -0.525827,9.476317 -0.01707,12.785268 0.549446,3.572359 0.526735,3.90317 -0.463021,6.82749 -0.572085,1.690276 -1.040906,3.527426 -1.041797,4.082446 -0.0036,1.881424 -0.833864,1.553814 -1.07487,-0.42427 -0.576368,-4.730542 -1.698292,-24.292196 -1.43402,-25.004677 0.200387,-0.540229 0.595489,-0.703458 1.26452,-0.522449 0.535189,0.144791 1.212186,0.05804 1.504302,-0.192751 0.09547,-0.08197 0.184354,-0.12776 0.269234,-0.134877 z m 39.9991,9.537401 c 0.48858,0.0113 0.8896,0.128402 1.16737,0.366903 0.38785,0.333021 1.28147,0.543007 1.98541,0.46664 0.70393,-0.07639 1.28003,0.06149 1.28003,0.306441 0,0.59895 2.04585,1.185762 4.2292,1.213363 1.55498,0.01963 1.79955,0.168627 1.93218,1.174089 0.25527,1.935189 1.24549,2.698165 3.15691,2.432925 0.93261,-0.12941 1.81749,-0.03154 1.96629,0.217557 0.14881,0.2491 -0.97429,1.568029 -2.49546,2.931088 -3.61762,3.241601 -22.10002,22.370621 -23.66367,24.491531 -0.66677,0.90441 -1.891,2.18018 -2.72076,2.83497 l -1.50895,1.19063 0.6997,-1.7353 c 1.20217,-2.98227 3.20961,-6.73595 4.48861,-8.39328 1.13608,-1.4721 1.1498,-1.5353 0.18087,-0.8444 -0.87031,0.62057 -2.17479,2.3295 -4.63176,6.06837 -0.18533,0.28203 -1.69469,2.87128 -3.3538,5.75417 -1.6591,2.88289 -3.21005,5.20542 -3.44682,5.16092 -0.23678,-0.0445 -0.3921,-0.90539 -0.3452,-1.91306 0.0469,-1.00766 -0.0886,-1.72091 -0.30127,-1.58492 -0.68732,0.43949 -1.44469,3.50411 -1.19062,4.81832 0.19313,0.99924 -0.0311,1.55298 -1.0294,2.54248 -0.70191,0.69568 -1.40637,1.81213 -1.5658,2.48098 -0.15942,0.66886 -1.39893,2.71878 -2.75435,4.55528 -2.490139,3.37409 -3.578835,4.20637 -3.011698,2.3027 0.169806,-0.56996 1.576572,-3.73026 3.125908,-7.02334 1.54932,-3.29308 3.33749,-7.64577 3.97391,-9.67228 0.63641,-2.02651 2.64871,-7.1275 4.47208,-11.33574 1.82337,-4.20824 3.31556,-8.10107 3.31556,-8.65064 0,-1.50119 2.45672,-7.792476 4.25504,-10.896496 0.87261,-1.506191 2.42581,-3.63719 3.45147,-4.735111 2.46418,-2.63775 6.22184,-4.573762 8.33902,-4.52479 z m 15.25902,11.461316 1.08159,1.329634 c 0.8717,1.071793 1.44039,1.330253 2.93367,1.333253 1.69236,0.003 1.93992,0.16184 2.86546,1.83865 0.64164,1.16245 1.70284,2.193944 2.89388,2.812754 1.03431,0.53736 2.51805,1.47149 3.29747,2.07584 2.03358,1.57681 2.50878,1.35593 1.24075,-0.57722 -1.75721,-2.67892 -1.36294,-3.378824 0.73019,-1.29605 4.49215,4.46993 17.75809,20.64236 17.75809,21.64881 v 5.3e-4 c 0,0.36688 -0.0504,0.64451 -0.11162,0.61701 -1.10825,-0.4974 -3.71006,-2.11018 -3.82096,-2.36833 -0.0816,-0.18999 -0.69433,-0.3452 -1.36167,-0.3452 -0.66735,0 -1.57042,-0.27 -2.0066,-0.59996 -0.7239,-0.54764 -0.73082,-0.65367 -0.0796,-1.21284 1.09204,-0.93765 0.0882,-1.95781 -1.36426,-1.38648 -1.5969,0.62813 -1.73119,0.54848 -0.82424,-0.48835 1.119,-1.27922 0.73535,-1.45601 -1.99471,-0.92035 -3.17049,0.62203 -3.18231,0.6193 -2.87837,-0.63356 l 0.26613,-1.09605 -11.2758,2.01021 c -6.20159,1.10558 -11.57618,2.00808 -11.94345,2.00608 -0.36728,-0.002 0.38421,-0.9503 1.66966,-2.10685 1.28546,-1.15654 2.33681,-2.35438 2.33681,-2.66185 0,-0.30747 0.7016,-1.262 1.55856,-2.12132 0.85697,-0.85932 1.55804,-1.72908 1.55804,-1.9327 0,-0.66582 -1.52804,-0.38604 -3.01583,0.55242 -1.81443,1.14448 -2.04251,1.14721 -1.75752,0.0196 0.19845,-0.78521 0.0488,-0.86922 -1.17254,-0.65732 l -1.39991,0.24288 1.00201,-0.91364 c 1.97973,-1.80577 0.94536,-1.46195 -1.88258,0.6258 -1.58622,1.17104 -3.05938,2.01703 -3.2737,1.87999 -0.21432,-0.13703 -1.36317,0.38993 -2.55281,1.17047 -1.18966,0.78054 -2.23281,1.20194 -2.31821,0.9369 -0.10331,-0.32064 -0.85409,-0.26233 -2.24276,0.17363 -1.14803,0.36045 -2.27996,0.65691 -2.5156,0.65991 -0.62692,0.007 3.81808,-4.55525 4.72942,-4.85449 0.42519,-0.13962 0.68466,-0.50196 0.57671,-0.80563 -0.10794,-0.30368 1.00152,-1.27761 2.46497,-2.16421 1.46345,-0.8866 2.66353,-1.86157 2.66753,-2.16628 0.004,-0.3047 0.80586,-1.21861 1.78284,-2.03088 1.22139,-1.01547 1.64385,-1.6417 1.35237,-2.00505 -0.2914,-0.36325 -0.0123,-0.77999 0.89297,-1.333254 0.72435,-0.44268 1.95081,-1.80669 2.72542,-3.030825 z m -75.361802,4.501537 c 0.785987,0 2.655649,1.456664 2.655652,2.069124 -3e-6,0.31983 0.300387,0.83962 0.667658,1.15497 0.367273,0.31535 0.66766,0.75491 0.66766,0.9772 0,0.57857 -0.425789,0.47281 -2.559534,-0.63613 -1.54984,-0.80544 -1.891874,-1.21678 -1.891874,-2.27428 0,-0.710044 0.206975,-1.290884 0.460438,-1.290884 z m 20.150706,4.392504 c 0.180515,-2.7e-4 0.158845,0.40681 0.0041,1.44229 -0.303631,2.03342 -0.332182,2.10006 -0.730705,1.68775 -0.528783,-0.54706 -0.314373,-2.3286 0.348816,-2.89802 0.172217,-0.14787 0.295703,-0.23189 0.377753,-0.23202 z m -26.981298,0.68109 c 0.970984,0.005 1.100892,0.10655 0.582393,0.4532 -0.855316,0.57186 -1.216427,0.57186 -1.558044,0 -0.158781,-0.26578 0.253982,-0.4572 0.975651,-0.4532 z m 22.435839,4.59817 c 0.308324,0 1.318373,4.76981 1.259871,5.94951 -0.0199,0.40105 -0.292941,0.12713 -0.606681,-0.60823 -0.547627,-1.28355 -0.591791,-1.18222 -1.105358,2.53318 -0.294227,2.12859 -0.828694,4.90669 -1.18804,6.17326 -0.359355,1.26657 -0.853541,4.47878 -1.097608,7.13858 -0.244065,2.6598 -0.540637,5.35447 -0.659392,5.98775 -0.175297,0.9348 -0.130329,1.00647 0.238744,0.38034 0.250034,-0.42417 0.571397,-2.0827 0.714169,-3.68504 0.30172,-3.38613 0.962506,-5.90662 1.548743,-5.90662 0.550127,0 0.519483,2.90604 -0.06511,6.17792 -0.89658,5.01775 -0.101457,3.05231 1.331182,-3.29076 1.818804,-8.05265 2.191343,-8.98865 2.230874,-5.60534 0.01656,1.41833 0.159973,4.16492 0.318326,6.10299 0.19567,2.39481 0.134183,3.52329 -0.19172,3.52329 -0.263744,0 -0.548359,-0.46615 -0.632518,-1.03611 -0.101203,-0.68537 -0.497798,0.11012 -1.170472,2.3487 -1.011097,3.3648 -1.753266,7.89925 -1.292944,7.89925 0.132484,0 0.632759,-0.64029 1.111559,-1.42265 l 0.870749,-1.42265 0.274918,1.42317 c 0.531048,2.74705 -0.74989,9.79669 -2.337842,12.8664 -0.407845,0.78842 -0.676109,0.84167 -2.206583,0.43976 -1.301631,-0.34178 -2.611062,-0.27177 -5.175911,0.27699 -1.888324,0.40402 -4.532215,0.73484 -5.87561,0.73484 -2.017938,0 -2.48067,-0.15084 -2.661854,-0.86765 -0.143978,-0.56957 -0.498128,-0.79255 -1.030428,-0.64854 -0.457657,0.12379 -1.212098,-0.19572 -1.732195,-0.7338 -0.50678,-0.52431 -1.199825,-0.84269 -1.540473,-0.70745 -0.377058,0.14969 -0.71659,-0.13774 -0.867648,-0.73536 -0.208045,-0.82305 -0.39243,-0.90184 -1.14205,-0.48679 -1.184423,0.65582 -1.397847,0.6259 -1.397847,-0.19586 0,-0.81715 -0.214754,-0.85071 -1.364774,-0.21394 -0.611946,0.33882 -0.86093,0.32815 -0.86093,-0.0367 0,-0.3308 -0.475247,-0.40536 -1.335836,-0.2098 -0.840269,0.19093 -1.335318,0.11901 -1.335318,-0.19379 0,-0.27345 -0.500991,-0.49713 -1.11311,-0.49713 -0.612121,0 -1.11311,-0.15682 -1.11311,-0.34829 0,-0.53258 -2.246789,-1.4433 -4.197678,-1.70171 -0.960689,-0.12722 -1.889223,-0.47008 -2.06344,-0.76171 -0.17421,-0.29163 -0.556231,-0.37739 -0.849043,-0.19017 -0.367721,0.23513 -0.486685,0.004 -0.383955,-0.74673 0.124806,-0.91245 0.471315,-1.12796 2.152322,-1.33893 1.101817,-0.13828 2.403668,-0.47359 2.893364,-0.74518 1.534631,-0.85111 5.151562,-1.06455 5.427575,-0.32039 0.184798,0.49822 0.385276,0.52622 0.857313,0.12092 0.471456,-0.40477 0.615466,-0.38571 0.615466,0.0806 0,0.46683 0.122092,0.48243 0.523481,0.0672 0.297524,-0.30781 0.73039,-0.37463 1.002006,-0.15451 0.262914,0.21307 1.329277,0.49936 2.369884,0.63613 2.164246,0.28444 2.248249,0.085 1.133779,-2.70267 -0.756219,-1.89158 -0.761161,-1.89446 -1.543574,-0.92605 l -0.784966,0.97152 -0.01447,-1.2237 c -0.01206,-0.99668 -0.181345,-1.17852 -0.912087,-0.98082 -0.689758,0.18661 -0.833004,0.0706 -0.620117,-0.50332 0.152254,-0.4105 0.506132,-0.763 0.785997,-0.7829 1.156992,-0.0825 6.057792,0.1525 8.966896,0.42995 l 3.116604,0.29714 -0.141592,1.5105 c -0.170442,1.81904 0.630185,4.53752 1.429885,4.855 0.382828,0.15199 0.833768,-0.61068 1.336871,-2.26188 0.41751,-1.3703 0.942094,-2.49132 1.16582,-2.49132 0.604057,0 1.328084,1.61563 1.328084,2.96313 0,0.64994 0.195011,1.18184 0.433049,1.18184 0.548555,0 0.248573,-5.29766 -0.39946,-7.05384 -0.642178,-1.74032 -0.628523,-1.78304 0.522965,-1.61385 0.943068,0.13857 1.084842,-0.23006 2.417942,-6.30091 0.778754,-3.54639 1.633114,-8.41715 1.899108,-10.82363 0.457983,-4.14348 2.122797,-10.59315 2.734199,-10.59315 z m -29.187881,0.65888 c 0.135509,0.003 0.211873,0.0711 0.211873,0.20308 0,0.23851 0.377759,0.33169 0.839743,0.20671 1.13198,-0.30626 4.037255,2.34168 3.35535,3.05821 -0.263617,0.27701 -1.064995,0.48305 -1.78077,0.45785 -0.715775,-0.0252 -3.00427,-0.0827 -5.085477,-0.12764 -2.08121,-0.0448 -4.635537,0.0768 -5.67614,0.26975 -1.040604,0.19285 -1.891874,0.19267 -1.891874,-10e-4 0,-0.4803 3.477125,-2.312 5.119584,-2.697 0.734544,-0.17218 1.57906,-0.51162 1.876888,-0.75396 0.297828,-0.2423 0.798819,-0.3453 1.11311,-0.22892 0.314293,0.11637 0.921821,0.0249 1.350306,-0.20309 0.237027,-0.12613 0.431898,-0.18729 0.567407,-0.18397 z m 7.01766,7.40161 -0.275436,1.49655 c -0.343543,1.86597 -0.07889,1.90348 0.814937,0.11524 0.773462,-1.54742 1.775503,-1.89504 1.336353,-0.46354 -0.21625,0.70488 -0.119489,0.8542 0.415477,0.64182 0.460534,-0.18284 0.696598,-0.0167 0.696598,0.49041 0,0.42206 0.200605,0.63922 0.445453,0.48266 0.244848,-0.15656 0.444934,0.12748 0.444934,0.63097 0,0.50348 0.300386,1.22613 0.66766,1.6061 0.36727,0.37997 0.668176,1.12014 0.668176,1.64486 0,0.52472 0.242686,0.90201 0.539501,0.83871 0.326022,-0.0696 1.208267,1.96558 2.228805,5.14026 0.929106,2.89027 1.633381,5.31316 1.564762,5.38416 -0.358624,0.37103 -4.433033,-2.76226 -4.863785,-3.74034 -0.276538,-0.62792 -0.747551,-1.14205 -1.046965,-1.14205 -0.299415,0 -0.649409,-0.41526 -0.777732,-0.92294 -0.148047,-0.58575 -0.47635,-0.82665 -0.897617,-0.65939 -0.365162,0.14497 -0.790652,0.0513 -0.945679,-0.20826 -0.155035,-0.2595 -0.575911,-0.35508 -0.935345,-0.21238 -0.417912,0.16591 -0.653706,-0.0254 -0.653706,-0.53021 0,-0.51249 -0.234153,-0.6961 -0.66766,-0.52399 -0.367273,0.1458 -0.66766,0.0645 -0.66766,-0.18087 0,-0.24537 -0.273314,-0.44649 -0.607197,-0.44649 -0.988373,0 -2.954343,-2.34046 -2.954343,-3.51709 0,-0.59874 -0.417492,-1.52021 -0.927592,-2.04794 l -0.927074,-0.95963 1.261422,-1.33067 c 1.55533,-1.64066 1.92908,-1.68027 1.92908,-0.20464 0,1.43285 0.776938,1.52513 0.970484,0.11524 0.148021,-1.07826 1.084331,-1.04116 0.9648,0.0382 -0.04001,0.36135 0.398214,0.17201 1.065567,-0.46044 z m 17.807696,3.1564 c 0.109816,0.0312 0.159571,0.41635 0.226862,1.24488 0.07313,0.9009 -0.07224,2.19607 -0.322979,2.87838 -0.250743,0.6823 -0.642107,1.24075 -0.869715,1.24075 -0.520607,0 -0.100589,-3.60209 0.56379,-4.83588 0.195144,-0.36239 0.316632,-0.55237 0.402042,-0.52813 z m 50.84392,6.9758 0.78187,1.47898 c 1.09843,2.07861 2.01879,6.54205 2.37814,11.53211 0.31326,4.34985 0.23427,4.56162 -1.39836,3.74086 -0.80767,-0.40606 -0.88915,-0.78993 -0.72709,-3.42357 0.11243,-1.82669 -0.10827,-4.2491 -0.57412,-6.30504 -0.41606,-1.83622 -0.68973,-4.16782 -0.60823,-5.18108 z m -4.31757,8.08426 c 0.645,-0.009 1.86899,3.26055 1.86966,6.00273 7.9e-4,2.98314 0.96993,8.91878 2.23449,13.68754 1.33388,5.02995 1.63847,5.22811 1.42472,0.92449 -0.10456,-2.10532 0.013,-4.55338 0.26096,-5.43998 l 0.45114,-1.6123 0.0398,1.8712 c 0.0221,1.02907 0.64739,3.72323 1.38958,5.98723 0.74219,2.26402 1.63315,5.77456 1.97972,7.80108 0.60274,3.5244 0.59243,3.71492 -0.24029,4.38061 -0.47882,0.38276 -1.2196,1.40659 -1.6459,2.27531 -1.19233,2.42973 -1.7077,2.2079 -2.31149,-0.99632 -0.30011,-1.59272 -1.79088,-8.49188 -3.31297,-15.33136 -1.82584,-8.20441 -2.7311,-13.2193 -2.6603,-14.73864 0.0589,-1.26657 0.12031,-2.87268 0.13591,-3.56929 0.0196,-0.87228 0.16999,-1.2394 0.38498,-1.2423 z m 11.05204,0.3762 c 0.0992,-0.015 0.23325,0.15145 0.41445,0.4191 0.3815,0.5635 1.19041,3.04508 1.7973,5.51439 0.6069,2.4693 1.04586,4.93723 0.97566,5.48442 l -0.12764,0.99477 -1.66967,-0.89038 -1.66915,-0.8909 v -5.61826 c 0,-3.75082 0.0255,-4.9748 0.27905,-5.01314 z m -54.873644,1.1405 c -0.06747,-0.0106 -0.113768,0.15818 -0.127124,0.49351 -0.01934,0.48551 0.08565,0.75714 0.233576,0.6041 0.147908,-0.15305 0.16374,-0.55016 0.03514,-0.88263 -0.05329,-0.13778 -0.10111,-0.20863 -0.141594,-0.21498 z m 89.693224,1.22577 c -0.32866,0.002 0.003,0.41448 0.73794,0.91777 1.73671,1.18994 2.45388,1.18994 0.99167,0 -0.62254,-0.50663 -1.40096,-0.91977 -1.72961,-0.91777 z m -111.055743,4.78162 c 0.162208,0.006 0.276468,0.18853 0.276468,0.48472 0,0.809 -0.266919,0.92822 -0.648541,0.28939 -0.140838,-0.23581 -0.05247,-0.55919 0.196371,-0.7183 0.06221,-0.0398 0.121621,-0.0577 0.175702,-0.0558 z m 26.249558,1.97972 c 0.194818,-0.0209 0.281871,0.78001 0.285771,2.53473 0.0038,1.69492 -0.193368,3.20964 -0.438216,3.3662 -0.582935,0.37273 -0.582935,-4.82354 0,-5.75675 0.05671,-0.0908 0.107487,-0.13935 0.152445,-0.14418 z m 20.317105,1.98644 c 0.73474,0 1.08504,2.62681 1.6278,12.20494 0.44879,7.91979 0.33272,13.04883 -0.31316,13.85394 -0.60361,0.7525 -0.8551,0.78992 -1.67741,0.25063 -0.48658,-0.31912 -0.50075,-1.19397 -0.0791,-4.84777 0.31951,-2.76823 0.4177,-7.6811 0.25942,-12.95993 -0.16291,-5.43329 -0.0968,-8.50181 0.18242,-8.50181 z m -7.05797,1.61179 -0.36225,1.38183 c -0.19906,0.75995 -0.361731,3.03985 -0.361731,5.06636 0,3.54889 0.07033,3.79999 1.915131,6.82025 1.66401,2.72432 1.89772,3.41906 1.78076,5.29632 l -0.13436,2.16111 -1.19062,-2.07274 c -0.65459,-1.13992 -2.29186,-3.18984 -3.638535,-4.55528 -2.158296,-2.18839 -2.608228,-2.44917 -3.795633,-2.20348 l -1.346689,0.27853 0.89917,-2.17144 c 1.314733,-3.17465 3.265458,-6.55096 4.847249,-8.38915 z m 38.08036,5.50303 c 0.19518,0.007 0.44035,0.0462 0.75293,0.10645 0.76939,0.14837 1.57232,0.43139 1.78387,0.62942 0.21154,0.19803 0.73773,2.14882 1.16944,4.33462 l 0.78496,3.97391 -1.43454,1.13172 c -0.78879,0.62245 -1.53374,1.13171 -1.65571,1.13171 -0.47406,0 -2.49005,-9.07273 -2.2748,-10.23762 0.15279,-0.82693 0.28823,-1.09145 0.87385,-1.07021 z m -23.54791,11.83286 c -0.0685,-0.005 -0.14532,0.004 -0.23151,0.0207 -0.94761,0.18596 -1.34788,3.76488 -0.53434,4.77903 0.28747,0.35803 0.41354,0.94437 0.2806,1.30277 -0.13294,0.35843 -0.12208,0.77565 0.0243,0.92707 0.75832,0.78454 1.00821,-0.0687 1.00821,-3.4432 0,-2.88091 -0.0681,-3.55386 -0.54725,-3.58634 z m 11.02775,7.4135 c -0.005,-0.002 -0.009,-5.2e-4 -0.0119,0.004 -0.0399,0.0648 0.0139,1.12396 0.11989,2.35386 0.17733,2.05776 0.25048,2.17688 0.91157,1.49293 0.66109,-0.68395 0.65119,-0.87156 -0.12041,-2.35386 -0.43235,-0.83059 -0.81956,-1.4729 -0.89917,-1.49655 z m -4.58939,4.60851 c -0.15536,-0.003 -0.24171,0.18536 -0.38189,0.56327 -0.17574,0.4738 -0.0435,0.96562 0.32453,1.20665 0.79264,0.5193 1.73426,0.53669 1.73426,0.032 0,-0.21405 -0.39649,-0.76016 -0.88108,-1.21388 -0.4162,-0.38968 -0.64045,-0.58479 -0.79582,-0.58808 z m -46.402328,15.08745 v 0.007 c 0.0118,-0.002 0.02482,-0.005 0.03566,-0.007 z m 6.951514,2.00143 c 0.0923,0.0403 0.182962,0.0852 0.279569,0.11317 0.03549,0.0103 -0.05529,-0.0522 -0.08992,-0.0651 -0.06191,-0.023 -0.125359,-0.0373 -0.189653,-0.0481 z"
       sodipodi:nodetypes="sssssssssccssscsscsscsssssscssssscccsssscsssssssssssssscccsscccscsscccccscscsssssssscssssscccsssccssssscccccscssssssccccsssssscssssssssssssccssssssssssssssssssssssssscssssscssscccssssssccccsssssssssssssssscsssscsssssssssssssssscsssssssscccsssssscccsscccsccscssssscccsscsscssssssssssssssscssscssssssssssssscsssccsssssssssssssssssssssssssssssssscsssscssssssssssssscscssssssscssccccssccsssscccssssccsssssssssssssssssssscscssssssssssssssssssccscsssssssssssssssscccssssssccsscsssssssscccssssssscsssssscccscsssssssccssssccssscsssccsssscssscsssscsscssssssssssccsssssscccscssssssssssssssscsssssssssssscccssccccssssssssssscscscccsssssccccsssssssscssssssssssssscccsssccscssssccssssccsccscccssssssccssssscccssssssscsscsssssssssssscssssccsscccscccccssscccssssccscsssscssssssscssscccccscc" />
    <path
       style="fill:none;stroke:#ff0000;stroke-width:0.025;stroke-linecap:butt;stroke-linejoin:miter;stroke-miterlimit:4;stroke-dasharray:none;stroke-opacity:1"
       d="m 42.228586,129.89299 -13.096207,-4.27632 c 0,0 -3.474504,-9.08716 -2.939967,-10.42351 0.534541,-1.33634 9.888973,-17.105246 18.708869,-22.183364 8.819893,-5.078122 1.870887,-24.054258 1.870887,-24.054258 0,0 -1.069081,-3.741775 1.336347,-10.958052 2.405425,-7.216275 7.483545,-8.819893 10.690779,-10.156243 3.207234,-1.336347 25.657876,-1.870886 28.86511,-1.870886 3.207235,0 23.519716,-26.192411 27.796026,-25.123333 4.27631,1.069078 13.36349,2.405425 15.76891,3.474503 2.40543,1.069078 7.48354,32.072342 13.0962,35.814116 5.61266,3.741775 8.55263,6.949008 12.56167,12.027129 4.00904,5.078122 9.6217,12.027128 13.63075,17.907058 4.00904,5.879928 13.36347,23.78699 14.43255,26.72695 1.06908,2.93997 2.93997,6.1472 4.00904,12.82894 1.06908,6.68174 1.06908,10.42351 1.33635,14.96709 0.26727,4.54358 0.26727,4.27632 -5.07812,9.35444 -5.34539,5.07812 -10.15624,8.28535 -11.49259,12.02712 -1.33635,3.74178 -1.60362,8.28536 -2.93996,11.49259 -1.33635,3.20724 0,3.20724 -5.61266,8.01809 -5.61266,4.81085 -6.94901,6.41447 -14.69983,6.68174 -7.75081,0.26727 -12.56167,-2.13816 -18.17433,0 -5.61265,2.13815 -14.96709,-4.27631 -18.44159,-4.81085 -3.47451,-0.53454 -4.27632,-2.13816 -9.62171,3.74177 -5.345386,5.87993 -4.00904,6.41447 -7.483543,8.55262 -3.474503,2.13816 -8.285355,5.07813 -14.165283,3.20724 -5.879931,-1.87089 -9.621705,-1.87089 -12.828939,-4.81085 -3.207234,-2.93997 -6.147197,-5.07812 -4.81085,-11.49259 1.336347,-6.41447 4.009043,-7.75082 -0.801809,-10.95805 -4.810853,-3.20724 -9.087165,-3.74178 -9.087165,-7.75082 0,-4.00904 1.870887,-5.87993 0,-8.28535 -1.870885,-2.40543 -19.935489,-8.48671 -19.510675,-12.02714 1.299284,-10.82832 12.027131,-8.28535 6.68174,-17.63978 z"
       id="path848"
       sodipodi:nodetypes="ccsscsssssssssssssssssssssssssssc" />
    <path
       sodipodi:type="star"
       style="fill:none;stroke:#ff0000;stroke-width:0.025;stroke-miterlimit:4;stroke-dasharray:none;stroke-opacity:1"
       id="path850"
       sodipodi:sides="3"
       sodipodi:cx="117.33132"
       sodipodi:cy="42.495855"
       sodipodi:r1="13.005896"
       sodipodi:r2="6.5029478"
       sodipodi:arg1="-1.4056476"
       sodipodi:arg2="-0.3584501"
       inkscape:flatsided="true"
       inkscape:rounded="0"
       inkscape:randomized="0"
       d="m 119.46948,29.666917 7.90295,21.095103 -22.22037,-3.703396 z"
       inkscape:transform-center-x="1.0690794"
       inkscape:transform-center-y="-2.2813861" />
  </g>
</svg>
