<?xml version="1.0" encoding="UTF-8" standalone="no"?>
<svg
   xmlns:dc="http://purl.org/dc/elements/1.1/"
   xmlns:cc="http://creativecommons.org/ns#"
   xmlns:rdf="http://www.w3.org/1999/02/22-rdf-syntax-ns#"
   xmlns:svg="http://www.w3.org/2000/svg"
   xmlns="http://www.w3.org/2000/svg"
   xmlns:sodipodi="http://sodipodi.sourceforge.net/DTD/sodipodi-0.dtd"
   xmlns:inkscape="http://www.inkscape.org/namespaces/inkscape"
   width="210mm"
   height="297mm"
   viewBox="0 0 210 297"
   version="1.1"
   id="svg8"
   inkscape:version="1.0.1 (3bc2e813f5, 2020-09-07)"
   sodipodi:docname="tekeningheksgespiegeld.svg">
  <defs
     id="defs2" />
  <sodipodi:namedview
     id="base"
     pagecolor="#ffffff"
     bordercolor="#666666"
     borderopacity="1.0"
     inkscape:pageopacity="0.0"
     inkscape:pageshadow="2"
     inkscape:zoom="0.7"
     inkscape:cx="680.31325"
     inkscape:cy="603.81365"
     inkscape:document-units="mm"
     inkscape:current-layer="layer1"
     inkscape:document-rotation="0"
     showgrid="false"
     inkscape:window-width="1920"
     inkscape:window-height="1001"
     inkscape:window-x="-9"
     inkscape:window-y="1341"
     inkscape:window-maximized="1" />
  <metadata
     id="metadata5">
    <rdf:RDF>
      <cc:Work
         rdf:about="">
        <dc:format>image/svg+xml</dc:format>
        <dc:type
           rdf:resource="http://purl.org/dc/dcmitype/StillImage" />
        <dc:title></dc:title>
      </cc:Work>
    </rdf:RDF>
  </metadata>
  <g
     inkscape:label="Laag 1"
     inkscape:groupmode="layer"
     id="layer1">
    <path
       id="path133"
       style="fill:#000000;stroke-width:0.452808"
       d="m 132.80843,203.41999 c -0.0643,0.0108 -0.12774,0.025 -0.18965,0.0481 -0.0346,0.0129 -0.12541,0.0754 -0.0899,0.0651 0.0966,-0.028 0.18727,-0.0729 0.27957,-0.11317 z m 6.95152,-2.00143 h -0.0357 c 0.0109,0.002 0.0239,0.004 0.0357,0.007 z M 93.357607,186.33111 c -0.15536,0.003 -0.37962,0.1984 -0.79581,0.58808 -0.48459,0.45372 -0.88109,0.99983 -0.88109,1.21388 0,0.50465 0.94162,0.48726 1.73426,-0.032 0.36798,-0.24103 0.50027,-0.73285 0.32453,-1.20665 -0.14018,-0.37791 -0.22653,-0.56655 -0.38189,-0.56327 z m -4.58938,-4.60851 -10e-6,1e-5 c -0.0796,0.0237 -0.46682,0.66596 -0.89917,1.49655 -0.7716,1.4823 -0.78149,1.66991 -0.1204,2.35386 0.66109,0.68395 0.73424,0.56483 0.91157,-1.49293 0.106,-1.2299 0.15983,-2.28905 0.11989,-2.35386 -0.002,-0.004 -0.007,-0.005 -0.0119,-0.004 z m 11.02775,-7.4135 v 0 c -0.47919,0.0325 -0.54725,0.70543 -0.54725,3.58634 0,3.37454 0.24988,4.22774 1.008203,3.4432 0.14637,-0.15142 0.15723,-0.56864 0.0243,-0.92707 -0.13294,-0.3584 -0.007,-0.94474 0.2806,-1.30277 0.81354,-1.01415 0.41328,-4.59307 -0.53433,-4.77903 -0.0862,-0.0169 -0.163053,-0.0253 -0.231513,-0.0207 z m -23.54792,-11.83286 c 0.58562,-0.0212 0.72106,0.24328 0.87385,1.07021 0.21525,1.16489 -1.80074,10.23762 -2.2748,10.23762 -0.12197,0 -0.86692,-0.50926 -1.65571,-1.13171 l -1.43454,-1.13172 0.78497,-3.97391 c 0.43171,-2.1858 0.9579,-4.13659 1.16943,-4.33462 0.21156,-0.19803 1.01449,-0.48105 1.78388,-0.62942 0.31257,-0.0603 0.55775,-0.0994 0.75292,-0.10645 z m 38.080363,-5.50303 1.38752,1.61231 c 1.58179,1.83819 3.53251,5.2145 4.84725,8.38915 l 0.89917,2.17144 -1.34669,-0.27853 c -1.18741,-0.24569 -1.63734,0.0151 -3.79564,2.20348 -1.34667,1.36544 -2.98395,3.41536 -3.63853,4.55528 l -1.19063,2.07274 -0.13436,-2.16111 c -0.11696,-1.87726 0.11675,-2.572 1.78077,-5.29632 1.8448,-3.02026 1.91513,-3.27136 1.91513,-6.82025 0,-2.02651 -0.16267,-4.30641 -0.36173,-5.06636 z m -7.05796,-1.61179 c 0.27925,0 0.34532,3.06852 0.18242,8.50181 -0.15829,5.27883 -0.0601,10.1917 0.25941,12.95993 0.42168,3.6538 0.40752,4.52865 -0.0791,4.84777 -0.82231,0.53929 -1.0738,0.50187 -1.67742,-0.25063 -0.64587,-0.80511 -0.76195,-5.93415 -0.31316,-13.85394 0.54276,-9.57813 0.89307,-12.20494 1.62781,-12.20494 z m 20.3171,-1.98644 c 0.045,0.005 0.0957,0.0534 0.15245,0.14418 0.58293,0.93321 0.58293,6.12949 0,5.75675 -0.24485,-0.15656 -0.44197,-1.67128 -0.43822,-3.3662 0.004,-1.75472 0.091,-2.55566 0.28577,-2.53473 z m 26.24956,-1.97972 c 0.0541,-0.002 0.11349,0.016 0.1757,0.0558 0.24884,0.15911 0.33721,0.48249 0.19637,0.7183 -0.38162,0.63883 -0.64854,0.51961 -0.64854,-0.28939 0,-0.29619 0.11426,-0.47906 0.27647,-0.48472 z M 42.781367,146.61364 c -0.32865,-0.002 -1.10707,0.41114 -1.729611,0.91777 -1.462209,1.18994 -0.745037,1.18994 0.991672,0 0.734552,-0.50329 1.066599,-0.91618 0.737939,-0.91777 z m 89.693233,-1.22577 c -0.0405,0.006 -0.0883,0.0772 -0.14159,0.21498 -0.1286,0.33247 -0.11277,0.72958 0.0351,0.88263 0.14793,0.15304 0.25292,-0.11859 0.23358,-0.6041 -0.0134,-0.33533 -0.0597,-0.50409 -0.12713,-0.49351 z m -54.873653,-1.1405 c 0.25357,0.0383 0.27905,1.26232 0.27905,5.01314 v 5.61826 l -1.66915,0.8909 -1.66966,0.89038 -0.12764,-0.99477 c -0.0702,-0.54719 0.36876,-3.01512 0.97565,-5.48442 0.60689,-2.46931 1.41581,-4.95089 1.79731,-5.51439 0.1812,-0.26765 0.31522,-0.4341 0.41444,-0.4191 z m 11.05204,-0.3762 c 0.215,0.003 0.36541,0.37002 0.38499,1.2423 0.0156,0.69661 0.077,2.30272 0.13591,3.56929 0.0708,1.51934 -0.83446,6.53423 -2.66031,14.73864 -1.52209,6.83948 -3.01285,13.73864 -3.31297,15.33136 -0.60379,3.20422 -1.11916,3.42605 -2.31149,0.99632 -0.4263,-0.86872 -1.16707,-1.89255 -1.64589,-2.27531 -0.83272,-0.66569 -0.84304,-0.85621 -0.2403,-4.38061 0.34657,-2.02652 1.23754,-5.53706 1.97973,-7.80108 0.74219,-2.264 1.36751,-4.95816 1.38958,-5.98723 l 0.0398,-1.8712 0.45113,1.6123 c 0.248,0.8866 0.36553,3.33466 0.26097,5.43998 -0.21375,4.30362 0.0908,4.10546 1.42472,-0.92449 1.26456,-4.76876 2.23369,-10.7044 2.23448,-13.68754 8e-4,-2.74218 1.22467,-6.01143 1.86966,-6.00273 z m -4.31757,-8.08426 0.1478,1.84226 c 0.0815,1.01326 -0.19217,3.34486 -0.60823,5.18108 -0.46585,2.05594 -0.68656,4.47835 -0.57413,6.30504 0.16206,2.63364 0.0806,3.01751 -0.72709,3.42357 -1.63263,0.82076 -1.71161,0.60899 -1.39836,-3.74086 0.35936,-4.99006 1.27971,-9.4535 2.37815,-11.53211 z m 68.651623,-10.1322 1.13379,1.07435 c 0.66735,0.63245 1.10558,0.82179 1.06556,0.46044 -0.11953,-1.0794 0.81678,-1.1165 0.9648,-0.0382 0.19355,1.40989 0.97049,1.31761 0.97049,-0.11524 0,-1.47563 0.37375,-1.43602 1.92908,0.20464 l 1.26142,1.33067 -0.92707,0.95963 c -0.5101,0.52773 -0.9276,1.4492 -0.9276,2.04794 0,1.17663 -1.96597,3.51709 -2.95434,3.51709 -0.33388,0 -0.6072,0.20112 -0.6072,0.44649 0,0.24536 -0.30038,0.32667 -0.66766,0.18087 -0.4335,-0.17211 -0.66766,0.0115 -0.66766,0.52399 0,0.50483 -0.23579,0.69612 -0.6537,0.53021 -0.35944,-0.1427 -0.78031,-0.0471 -0.93535,0.21239 -0.15502,0.25952 -0.58051,0.35322 -0.94568,0.20825 -0.42126,-0.16726 -0.74957,0.0736 -0.89761,0.65939 -0.12833,0.50768 -0.47832,0.92294 -0.77774,0.92294 -0.29941,0 -0.77042,0.51413 -1.04696,1.14205 -0.43075,0.97808 -4.50516,4.11137 -4.86379,3.74034 -0.0686,-0.071 0.63566,-2.49389 1.56477,-5.38416 1.02053,-3.17467 1.90278,-5.20982 2.2288,-5.14026 0.29682,0.0633 0.5395,-0.31399 0.5395,-0.83871 0,-0.52472 0.30091,-1.26489 0.66818,-1.64486 0.36727,-0.37997 0.66766,-1.10262 0.66766,-1.6061 0,-0.50349 0.20009,-0.78753 0.44493,-0.63097 0.24485,0.15656 0.44546,-0.0606 0.44546,-0.48266 0,-0.50708 0.23606,-0.67325 0.69659,-0.49041 0.53497,0.21238 0.63173,0.0631 0.41548,-0.64182 -0.43915,-1.4315 0.56289,-1.08388 1.33635,0.46354 0.89383,1.78824 1.15848,1.75073 0.81494,-0.11524 z m 7.01766,-7.40161 v -3e-5 c 0.13551,-0.003 0.33038,0.0578 0.56741,0.18397 0.42849,0.22801 1.03601,0.31946 1.35031,0.20309 0.31429,-0.11638 0.81528,-0.0134 1.11311,0.22892 0.29783,0.24234 1.14234,0.58178 1.87689,0.75396 1.64246,0.385 5.11958,2.2167 5.11958,2.697 0,0.19372 -0.85127,0.1939 -1.89187,0.001 -1.04061,-0.19298 -3.59493,-0.31459 -5.67614,-0.26975 -2.08121,0.0449 -4.36971,0.1024 -5.08548,0.12764 -0.71578,0.0252 -1.51715,-0.18084 -1.78077,-0.45785 -0.68191,-0.71653 2.22337,-3.36447 3.35535,-3.05821 0.46198,0.12498 0.83974,0.0318 0.83974,-0.2067 0,-0.13195 0.0764,-0.19976 0.21187,-0.20309 z m -29.18788,-0.65888 h 1e-5 c 0.6114,0 2.27621,6.44967 2.7342,10.59315 0.26599,2.40648 1.12035,7.27724 1.8991,10.82363 1.3331,6.07085 1.47488,6.43948 2.41795,6.30091 1.15148,-0.16919 1.16514,-0.12647 0.52296,1.61385 -0.64803,1.75618 -0.94801,7.05384 -0.39946,7.05384 0.23804,0 0.43305,-0.5319 0.43305,-1.18184 0,-1.3475 0.72403,-2.96313 1.32808,-2.96313 0.22373,0 0.74831,1.12102 1.16582,2.49132 0.50311,1.6512 0.95405,2.41387 1.33687,2.26188 0.7997,-0.31748 1.60033,-3.03596 1.42989,-4.855 l -0.14159,-1.5105 3.1166,-0.29714 c 2.90911,-0.27745 7.80991,-0.51245 8.9669,-0.42995 0.27986,0.0199 0.63374,0.3724 0.78599,0.7829 0.21289,0.57394 0.0696,0.68993 -0.62011,0.50332 -0.73074,-0.1977 -0.90002,-0.0158 -0.91209,0.98082 l -0.0145,1.2237 -0.78497,-0.97152 c -0.78241,-0.96841 -0.78735,-0.96553 -1.54357,0.92605 -1.11447,2.7877 -1.03047,2.98711 1.13378,2.70267 1.0406,-0.13677 2.10697,-0.42306 2.36988,-0.63613 0.27162,-0.22012 0.70448,-0.1533 1.00201,0.15451 0.40139,0.41525 0.52348,0.39965 0.52348,-0.0672 0,-0.46633 0.14401,-0.48539 0.61546,-0.0806 0.47204,0.4053 0.67252,0.3773 0.85732,-0.12092 0.27601,-0.74416 3.89294,-0.53072 5.42757,0.3204 0.4897,0.27158 1.79155,0.60689 2.89337,0.74517 1.681,0.21097 2.02751,0.42648 2.15232,1.33893 0.10273,0.75107 -0.0163,0.98186 -0.38396,0.74673 -0.29281,-0.18722 -0.67483,-0.10146 -0.84904,0.19017 -0.17422,0.29163 -1.10275,0.63449 -2.06344,0.76171 -1.95089,0.25841 -4.19768,1.16913 -4.19768,1.70171 0,0.19147 -0.50099,0.34829 -1.11311,0.34829 -0.61212,0 -1.11311,0.22368 -1.11311,0.49713 0,0.3128 -0.49505,0.38472 -1.33532,0.19379 -0.86059,-0.19556 -1.33583,-0.121 -1.33583,0.2098 0,0.36484 -0.24899,0.37551 -0.86093,0.0367 -1.15002,-0.63677 -1.36478,-0.60321 -1.36478,0.21394 0,0.82177 -0.21342,0.85168 -1.39784,0.19586 -0.74962,-0.41505 -0.93401,-0.33626 -1.14205,0.48679 -0.15106,0.59762 -0.49059,0.88505 -0.86765,0.73536 -0.34065,-0.13524 -1.03369,0.18314 -1.54047,0.70745 -0.5201,0.53808 -1.27454,0.85759 -1.7322,0.7338 -0.5323,-0.14401 -0.88645,0.079 -1.03043,0.64854 -0.18118,0.71681 -0.64391,0.86765 -2.66185,0.86765 -1.3434,0 -3.98729,-0.33082 -5.87561,-0.73484 -2.56485,-0.54876 -3.87428,-0.61877 -5.17591,-0.27699 -1.53048,0.40191 -1.79874,0.34866 -2.20659,-0.43976 -1.58795,-3.06971 -2.86889,-10.11935 -2.33784,-12.8664 l 0.27492,-1.42317 0.87075,1.42265 c 0.4788,0.78236 0.97907,1.42265 1.11156,1.42265 0.46032,0 -0.28185,-4.53445 -1.29295,-7.89925 -0.67267,-2.23858 -1.06926,-3.03407 -1.17047,-2.3487 -0.0842,0.56996 -0.36877,1.03611 -0.63252,1.03611 -0.3259,0 -0.38739,-1.12848 -0.19172,-3.52329 0.15836,-1.93807 0.30177,-4.68466 0.31833,-6.10299 0.0395,-3.38331 0.41207,-2.44731 2.23087,5.60534 1.43264,6.34307 2.22777,8.30851 1.33119,3.29076 -0.5846,-3.27188 -0.61524,-6.17792 -0.0651,-6.17792 0.58623,0 1.24702,2.52049 1.54874,5.90662 0.14277,1.60234 0.46413,3.26087 0.71417,3.68504 0.36907,0.62613 0.41404,0.55446 0.23874,-0.38034 -0.11875,-0.63328 -0.41533,-3.32795 -0.65939,-5.98775 -0.24407,-2.6598 -0.73825,-5.87201 -1.09761,-7.13858 -0.35934,-1.26657 -0.89381,-4.04467 -1.18804,-6.17326 -0.51357,-3.7154 -0.55773,-3.81673 -1.10536,-2.53318 -0.31374,0.73536 -0.58678,1.00928 -0.60668,0.60823 -0.0585,-1.1797 0.95155,-5.94951 1.25987,-5.94951 z m 15.60525,-9.67176 c 0.25346,0 0.46044,0.58084 0.46044,1.29088 0,1.0575 -0.34204,1.46884 -1.89187,2.27428 -2.13375,1.10894 -2.55954,1.21471 -2.55954,0.63614 0,-0.22229 0.30039,-0.66185 0.66766,-0.97721 0.36727,-0.31534 0.66766,-0.83514 0.66766,-1.15496 0,-0.61246 1.86966,-2.06913 2.65565,-2.06913 z m -75.361813,-4.50153 1.40819,2.22571 c 0.77461,1.22413 2.00106,2.58814 2.72541,3.03082 0.9053,0.55326 1.18437,0.97 0.89297,1.33325 -0.29148,0.36336 0.13098,0.98958 1.35237,2.00505 0.97698,0.81227 1.77919,1.72618 1.78284,2.03088 0.004,0.30471 1.20409,1.27968 2.66754,2.16628 1.46345,0.8866 2.5729,1.86053 2.46496,2.16421 -0.10795,0.30367 0.15152,0.66601 0.57671,0.80563 0.91134,0.29924 5.35634,4.86179 4.72943,4.85449 -0.23565,-0.003 -1.36758,-0.29946 -2.51561,-0.65991 -1.38867,-0.43596 -2.13945,-0.49427 -2.24276,-0.17363 -0.0854,0.26504 -1.12855,-0.15636 -2.3182,-0.9369 -1.18965,-0.78054 -2.3385,-1.3075 -2.55282,-1.17047 -0.21432,0.13704 -1.68748,-0.70895 -3.2737,-1.87999 -2.82794,-2.08775 -3.86231,-2.43157 -1.88257,-0.6258 l 1.002,0.91364 -1.39991,-0.24288 c -1.22139,-0.2119 -1.37099,-0.12789 -1.17254,0.65732 0.28499,1.12758 0.0569,1.12485 -1.75751,-0.0196 -1.48779,-0.93846 -3.01584,-1.21824 -3.01584,-0.55242 0,0.20362 0.70107,1.07338 1.55804,1.9327 0.85697,0.85932 1.55857,1.81385 1.55857,2.12132 0,0.30747 1.05135,1.50531 2.3368,2.66185 1.28545,1.15655 2.03694,2.10473 1.66967,2.10685 -0.36728,0.002 -5.74187,-0.9005 -11.94346,-2.00608 l -11.27579,-2.01021 0.26613,1.09605 c 0.30394,1.25286 0.29211,1.25559 -2.87838,0.63356 -2.73006,-0.53566 -3.11371,-0.35887 -1.99471,0.92035 0.90695,1.03683 0.77266,1.11648 -0.82424,0.48835 -1.452467,-0.57133 -2.456296,0.44883 -1.364255,1.38648 0.651245,0.55917 0.644315,0.6652 -0.07958,1.21284 -0.436181,0.32996 -1.339246,0.59996 -2.006597,0.59996 -0.66734,0 -1.280054,0.15521 -1.361673,0.3452 -0.1109,0.25815 -2.712707,1.87093 -3.820956,2.36833 -0.0612,0.0275 -0.11162,-0.25013 -0.11162,-0.61701 v -5.3e-4 c 0,-1.00645 13.265941,-17.17888 17.758091,-21.64881 2.09313,-2.08277 2.48739,-1.38287 0.73019,1.29605 -1.26803,1.93315 -0.79283,2.15403 1.24075,0.57722 0.77942,-0.60435 2.26316,-1.53848 3.29747,-2.07584 1.19104,-0.61881 2.25224,-1.6503 2.89388,-2.81275 0.92554,-1.67681 1.1731,-1.83539 2.86546,-1.83864 1.49328,-0.003 2.06197,-0.26147 2.93367,-1.33326 z m 15.25902,-11.46132 c 2.11718,-0.04897 5.87484,1.887039 8.33903,4.524789 1.02566,1.09792 2.57886,3.22892 3.45147,4.735111 1.79832,3.10402 4.255033,9.39531 4.255033,10.89649 0,0.54957 1.49219,4.4424 3.31556,8.65064 1.82337,4.20824 3.83567,9.30923 4.47208,11.33574 0.63642,2.02651 2.4246,6.3792 3.97392,9.67228 1.54933,3.29308 2.9561,6.45338 3.12591,7.02334 0.56713,1.90367 -0.52156,1.07139 -3.0117,-2.3027 -1.35543,-1.8365 -2.59494,-3.88642 -2.75436,-4.55528 -0.15943,-0.66885 -0.86389,-1.7853 -1.5658,-2.48098 -0.99828,-0.9895 -1.22253,-1.54324 -1.02939,-2.54248 0.25406,-1.31421 -0.50331,-4.37883 -1.19063,-4.81832 -0.21265,-0.13599 -0.34818,0.57726 -0.30127,1.58492 0.0469,1.00767 -0.10842,1.86856 -0.3452,1.91306 -0.23677,0.0445 -1.78771,-2.27803 -3.44682,-5.16092 -1.65911,-2.88289 -3.16847,-5.47214 -3.3538,-5.75417 -2.456973,-3.73887 -3.761443,-5.4478 -4.631753,-6.06837 -0.96893,-0.6909 -0.95522,-0.6277 0.18087,0.8444 1.27899,1.65733 3.28643,5.41101 4.488613,8.39328 l 0.6997,1.7353 -1.508963,-1.19063 c -0.82975,-0.65479 -2.05399,-1.93056 -2.72076,-2.83497 -1.56365,-2.12091 -20.04605,-21.24992 -23.66367,-24.49152 -1.52117,-1.363061 -2.64426,-2.681991 -2.49546,-2.931091 0.1488,-0.2491 1.03368,-0.34697 1.96629,-0.21756 1.91142,0.26524 2.90165,-0.49773 3.15692,-2.43292 0.13263,-1.00546 0.3772,-1.15446 1.93218,-1.17409 2.18335,-0.0276 4.2292,-0.61441 4.2292,-1.21336 0,-0.24496 0.57609,-0.38284 1.28002,-0.30645 0.70394,0.0764 1.59756,-0.13361 1.98541,-0.46664 0.27777,-0.238497 0.67879,-0.355601 1.16737,-0.366899 z m 39.999113,-9.537401 h 1e-5 c 0.0849,0.0071 0.17377,0.0529 0.26924,0.134877 0.29211,0.250788 0.96911,0.337542 1.5043,0.192751 0.66903,-0.181009 1.06413,-0.01778 1.26452,0.522449 0.26427,0.712481 -0.85765,20.274134 -1.43402,25.004674 -0.24101,1.97808 -1.07125,2.30569 -1.07487,0.42427 -7.9e-4,-0.55501 -0.46971,-2.39217 -1.0418,-4.08244 -0.98975,-2.92432 -1.01247,-3.25513 -0.46302,-6.827491 0.50876,-3.30895 0.49703,-12.253378 -0.0171,-12.78527 -0.1012,-0.104687 0.0218,-0.801198 0.27336,-1.547709 0.24663,-0.731898 0.4647,-1.057463 0.71934,-1.036111 z m 6.49728,-0.23151 v -1.1e-5 c 1.10586,-0.03611 1.33067,1.088081 0.71675,3.525367 -0.6005,2.38398 -1.7024,5.165058 -2.04639,5.165058 -0.12031,0 -0.13637,-1.917044 -0.0357,-4.260204 0.16867,-3.923631 0.25836,-4.271682 1.13223,-4.407482 0.0816,-0.01267 0.15933,-0.02035 0.23306,-0.02273 z m 5.21518,-0.06666 1e-5,-3e-6 c 0.22544,-0.0072 0.4967,0.209722 0.67748,0.697114 0.14094,0.379971 0.53535,0.690914 0.87643,0.690914 0.38029,0 0.62012,0.49166 0.62012,1.271241 0,0.717839 0.48467,1.811846 1.11311,2.513023 0.61212,0.682972 1.11311,1.555303 1.11311,1.938385 0,0.421005 0.25669,0.594511 0.64906,0.438732 0.43503,-0.17272 0.74666,0.145048 0.94516,0.963248 0.20159,0.830982 0.5077,1.136576 0.9586,0.957564 0.44683,-0.177366 0.58225,-0.04737 0.41651,0.39946 -0.13513,0.364322 0.0431,0.910512 0.39584,1.213362 0.82042,0.70454 0.82963,1.81953 0.015,1.81953 -0.42019,0 -0.54412,0.32321 -0.37724,0.9834 0.22228,0.87939 0.10001,0.96149 -1.15445,0.77101 -1.29187,-0.19616 -1.40354,-0.10976 -1.40354,1.08883 0,0.9769 -0.21317,1.30173 -0.85472,1.30173 -0.58729,0 -0.9465,0.4312 -1.14722,1.376651 -0.16072,0.75705 -0.45841,1.48248 -0.66146,1.61231 -0.62686,0.40082 -3.57087,6.97513 -3.53363,7.89099 0.025,0.61645 0.16332,0.50107 0.48214,-0.40204 0.24591,-0.69661 0.7311,-1.26659 1.07797,-1.26659 0.34687,0 0.63045,-0.40032 0.63045,-0.88987 0,-0.48956 0.40069,-1.02156 0.89039,-1.18236 0.48969,-0.1608 0.89038,-0.58948 0.89038,-0.95239 0,-0.36289 0.30039,-0.65991 0.66766,-0.65991 0.36727,0 0.66766,-0.20712 0.66766,-0.46044 0,-0.25331 0.40069,-0.46043 0.89038,-0.46043 0.65294,0 0.89039,-0.30698 0.89039,-1.15135 0,-1.22971 0.41525,-1.45902 1.19062,-0.65681 0.34113,0.35292 0.56551,0.0163 0.78135,-1.17409 0.25635,-1.413701 0.44124,-1.624381 1.20665,-1.373051 0.61168,0.20086 1.25116,-0.0407 1.97869,-0.74775 l 1.07539,-1.0449 v 1.39165 c 0,0.91599 -0.28973,1.533421 -0.84802,1.807121 -0.46648,0.22869 -1.64879,1.47179 -2.62723,2.76262 -0.97843,1.29082 -2.70006,2.94936 -3.8256,3.68505 -1.12554,0.73568 -2.04689,1.60865 -2.04742,1.94045 -5.3e-4,0.33181 -1.00576,1.70271 -2.23397,3.04632 -1.80958,1.97951 -2.11834,2.54139 -1.62833,2.96209 0.3326,0.28559 0.71659,0.40384 0.85318,0.26252 0.13659,-0.14131 0.36371,-0.0637 0.50488,0.1726 0.14117,0.23632 -0.1393,0.80059 -0.62322,1.25367 -0.50698,0.47468 -0.87953,1.4141 -0.87953,2.21692 v 1.3932 l 1.29656,-1.50224 c 1.09782,-1.27216 1.43414,-1.42604 2.19625,-1.00407 0.495,0.27409 1.4073,0.49816 2.02726,0.49816 h 1.12758 l -0.82682,1.49707 c -0.89209,1.61572 -1.57415,3.77407 -2.00091,6.33242 l -0.26872,1.61231 1.34049,-1.47175 c 0.73732,-0.80953 1.34048,-1.80321 1.34048,-2.20761 0,-0.78736 0.40963,-1.39746 2.33733,-3.48454 0.6733,-0.729 1.22422,-1.64341 1.22422,-2.03192 0,-0.3885 0.17696,-0.70642 0.39325,-0.70642 0.21629,0 0.52565,-0.36285 0.6873,-0.80615 0.71671,-1.96545 1.37825,-2.72887 2.75125,-3.17345 0.80869,-0.26186 1.72986,-0.30574 2.04691,-0.0977 0.76988,0.50529 2.20324,0.47945 3.01997,-0.0548 0.54954,-0.35946 0.40146,-0.71194 -0.86662,-2.0655 -0.84096,-0.89765 -1.84008,-1.63346 -2.22053,-1.63452 -0.89685,-0.003 -3.58583,-2.60865 -3.58583,-3.47524 0,-0.85342 0.6052,-0.84402 2.24844,0.0351 1.21506,0.65001 1.51241,0.56731 1.35961,-0.37724 -0.0824,-0.50907 1.46328,0.3941 2.15904,1.26142 0.74456,0.92816 1.35599,0.91338 1.35599,-0.0326 0,-0.60719 0.27309,-0.68414 1.44694,-0.40773 0.79575,0.18738 2.18919,0.41945 3.09697,0.51573 2.30396,0.24435 14.62505,8.81159 15.90807,11.06134 0.50396,0.88369 0.91674,1.90569 0.91674,2.27118 0,0.86883 -1.07547,0.85284 -1.78077,-0.0263 -0.6468,-0.80629 -1.83209,-0.92878 -1.66967,-0.1726 0.29027,1.35138 -1.02715,0.66072 -2.73316,-1.43247 -1.95715,-2.40131 -4.41346,-4.0889 -4.89376,-3.36259 -0.15115,0.22856 -0.97599,0.4033 -1.83296,0.38861 -0.85697,-0.0147 -1.68918,0.16093 -1.8495,0.39016 -0.16033,0.22924 -1.02344,-0.0298 -1.91772,-0.57568 -2.00098,-1.22142 -2.02003,-1.22144 -2.02003,0 0,0.93236 -0.0496,0.94652 -0.81442,0.23048 -1.13325,-1.06101 -1.55385,-0.9517 -1.24437,0.32401 0.25039,1.0321 0.12665,1.10147 -2.466,1.38183 -3.074,0.3324 -3.58313,0.64196 -4.49481,2.7342 -0.35366,0.81159 -2.62587,6.08169 -5.04931,11.71091 -2.42343,5.62922 -4.52193,10.24043 -4.66328,10.24744 -0.14134,0.007 -1.70729,-7.29295 -3.47989,-16.22227 -1.7726,-8.92932 -3.41992,-16.89153 -3.66076,-17.69401 -0.31079,-1.03561 -0.23469,-2.96601 0.262,-6.65024 0.38488,-2.854891 0.79435,-5.288271 0.91002,-5.407941 0.11568,-0.11968 0.59912,0.14623 1.07436,0.59118 0.85094,0.79672 0.85534,0.77345 0.26665,-1.53531 -0.52952,-2.07672 -0.49479,-4.191988 0.0692,-4.191988 0.11021,0 0.92848,0.569968 1.81798,1.266588 1.67926,1.31511 1.64404,1.11974 -0.35243,-1.9575 -1.05492,-1.625981 -1.1375,-2.014328 -0.70332,-3.30626 0.66221,-1.970389 1.00261,-2.236742 1.89033,-1.480013 0.68543,0.58429 0.7239,0.518269 0.42839,-0.740523 -0.17839,-0.759939 -0.4338,-1.84798 -0.5674,-2.41794 -0.15314,-0.653288 0.0605,-1.033542 0.35036,-1.042829 z m -29.19666,-2.456183 v 8e-6 c 0.4035,-0.03349 0.75622,0.924021 1.27175,3.405995 0.6726,3.238219 1.34501,4.855763 4.87257,11.72228 0.61269,1.19262 1.00722,2.95095 1.1188,4.98626 0.11624,2.120361 0.37289,3.223601 0.78806,3.388421 0.36676,0.14562 0.61781,0.92276 0.62064,1.92237 0.007,2.50389 1.23516,14.01072 1.60042,14.99546 0.22918,0.6179 0.14319,0.79807 -0.31006,0.64906 -0.34505,-0.11345 -1.0638,-1.5404 -1.5968,-3.17139 -0.53301,-1.63098 -0.99791,-2.75806 -1.03302,-2.50475 -0.14042,1.0132 -0.83114,-1.49406 -0.86041,-3.12332 -0.0193,-1.07387 -0.2789,-1.84009 -0.67748,-1.99833 -0.35712,-0.14178 -0.77894,-1.17122 -0.94257,-2.30012 -0.24214,-1.67046 -0.40836,-1.94671 -0.91158,-1.51463 -0.51065,0.43844 -0.61908,0.10656 -0.63458,-1.94614 -0.0218,-2.88555 -1.32897,-8.889061 -2.11202,-9.699151 -0.64612,-0.66847 -0.66965,-0.52508 -0.54519,3.30988 0.0562,1.73068 1.3923,8.784641 3.16725,16.719391 3.00582,13.43727 3.43743,15.98145 2.71095,15.98145 -0.19767,0 -0.98462,-1.45569 -1.74873,-3.23494 -0.81509,-1.89792 -1.6283,-3.18289 -1.96732,-3.10886 -0.32222,0.0704 -0.65076,-0.38324 -0.74259,-1.02526 -0.0906,-0.63328 -0.42712,-1.30631 -0.74776,-1.49552 -0.32063,-0.18921 -0.72087,-1.38107 -0.88935,-2.64841 -0.16848,-1.26735 -0.48765,-2.30426 -0.70952,-2.30426 -0.22187,0 -0.40359,-0.61221 -0.40359,-1.36063 0,-0.84215 -0.4297,-1.80548 -1.12758,-2.5275 -0.62023,-0.64166 -1.45211,-2.20554 -1.84847,-3.47523 -0.39637,-1.26971 -0.87807,-2.30839 -1.07074,-2.30839 -0.19264,0 -0.48537,-0.93283 -0.6506,-2.07274 -0.18993,-1.31035 -0.52754,-2.07274 -0.91777,-2.07274 -0.41025,0 -0.61702,-0.54786 -0.61702,-1.63453 0,-2.128961 -1.1918,-4.589271 -1.91978,-3.963071 -0.403973,0.34748 -0.492233,-0.65015 -0.373103,-4.22765 0.16603,-4.986045 0.529303,-6.292089 1.751833,-6.298836 0.41987,-0.0021 1.76524,-0.513832 2.98948,-1.13688 1.22421,-0.623052 2.45485,-1.139307 2.73471,-1.147218 0.66743,-0.01889 1.04904,-1.109567 1.04904,-2.996715 0,-0.854811 0.26389,-1.629572 0.60048,-1.763202 0.0274,-0.0109 0.0547,-0.01805 0.0816,-0.02016 z m 11.72796,-1.5875 c 0.22528,-0.02492 0.39349,0.191617 0.7121,0.627354 0.3577,0.489188 0.65678,1.141278 0.66456,1.449006 0.008,0.307729 0.39612,0.771401 0.863,1.029912 0.67373,0.373028 0.80455,0.827323 0.63407,2.203482 -0.11814,0.953651 -0.0229,2.971424 0.21187,4.483965 0.47357,3.05072 -0.2761,19.127515 -0.89193,19.127515 -0.1969,0 -0.35812,5.73402 -0.35812,12.74237 0,7.00835 -0.1231,12.61467 -0.27389,12.45867 -0.15078,-0.15601 -0.54516,-3.35109 -0.87643,-7.10034 -0.33126,-3.74926 -0.83434,-8.8611 -1.11776,-11.35951 -0.41166,-3.62884 -0.4015,-4.61513 0.0496,-4.90358 0.45411,-0.29035 0.40638,-2.98605 -0.24236,-13.765051 -0.4437,-7.372228 -0.97293,-13.404347 -1.17616,-13.404347 -0.78452,0 -0.31674,-1.732589 0.74672,-2.766239 0.54683,-0.531474 0.82944,-0.798283 1.05472,-0.823207 z m 24.93233,-14.874544 c -0.71303,-0.01156 -1.66629,0.02837 -2.69544,0.122992 -2.03867,0.187399 -7.96416,0.559326 -13.16767,0.826304 -7.69909,0.39501 -9.73016,0.370713 -10.90683,-0.129706 -1.24132,-0.52791 -2.48658,-0.47946 -8.7974,0.340031 l -7.35097,0.954464 -3.778063,2.922301 c -4.16261,3.219379 -7.40095,5.047951 -11.12387,6.281269 -4.01212,1.329122 -9.68505,4.418645 -11.69645,6.370156 -1.03496,1.004139 -3.87243,3.368972 -6.30555,5.255493 -6.81453,5.283629 -8.18348,6.732123 -13.61468,14.404284 -9.10872,12.86705 -14.947574,20.88448 -18.446932,25.33127 -4.718211,5.9956 -5.303755,7.27318 -5.018817,10.9461 0.16955,2.18514 0.481589,3.21418 1.22215,4.02973 l 0.99477,1.09554 1.089855,-2.26343 c 1.25848,-2.61276 3.685167,-4.64206 7.160287,-5.98723 2.783527,-1.07746 10.016707,-1.96538 11.858707,-1.45572 l 1.26659,0.35088 -3.01997,2.86236 c -1.66076,1.5744 -3.8683,3.43117 -4.90616,4.12636 -1.03786,0.69519 -2.18767,1.47165 -2.554884,1.72496 -0.3672,0.25331 -0.777066,1.39275 -0.911056,2.53266 l -0.243911,2.07274 2.060851,-2.25464 c 1.64216,-1.79677 2.56273,-2.3892 4.53461,-2.91817 1.36085,-0.36505 3.13583,-1.08415 3.94446,-1.59783 0.80864,-0.51369 1.56462,-0.83618 1.68,-0.71675 0.40977,0.42394 -3.71407,5.68981 -6.7479,8.61652 -1.69405,1.63424 -3.0259,3.21991 -2.95951,3.52382 0.0664,0.30392 -0.99941,1.58565 -2.368851,2.84841 -2.184939,2.01474 -2.472367,2.47911 -2.346626,3.78994 l 0.143142,1.49397 1.436605,-2.07739 c 0.78997,-1.14247 2.43405,-2.73955 3.65352,-3.54914 1.21948,-0.80959 2.33758,-1.86571 2.48512,-2.34663 0.94281,-3.07323 6.41678,-9.18755 8.22534,-9.18755 1.32511,0 -2.05872,8.89852 -5.54695,14.58671 -1.35466,2.20901 -2.4629,4.40197 -2.4629,4.87308 0,0.47112 -0.70107,2.22312 -1.55804,3.89382 -0.85696,1.6707 -1.55804,3.3478 -1.55804,3.72691 0,0.37912 -0.44094,1.94061 -0.97979,3.46955 -0.924529,2.62329 -0.860252,3.20256 0.34675,3.12229 0.15384,-0.0102 1.06762,-2.45211 2.03088,-5.42602 1.9398,-5.98884 4.8208,-12.37397 7.5861,-16.81396 2.26165,-3.63133 6.18888,-8.78382 6.47196,-8.49096 0.32044,0.33153 -0.60704,4.416 -1.6707,7.35718 -0.51925,1.43582 -1.63371,3.6709 -2.47685,4.96713 -1.29729,1.99447 -1.48884,2.61307 -1.24437,4.02353 0.55534,3.20394 0.88507,2.89859 3.02359,-2.80344 1.16798,-3.11422 3.19944,-7.52784 4.51445,-9.80767 1.31502,-2.27982 2.83424,-5.28492 3.37602,-6.67815 0.54179,-1.39322 1.15177,-2.72971 1.35548,-2.97036 0.79443,-0.9385 0.31544,2.5511 -0.75345,5.48907 -0.61813,1.69899 -1.25166,4.36637 -1.40766,5.92729 -0.18374,1.83847 -0.80866,3.92324 -1.77457,5.91953 -0.82009,1.69492 -1.61301,4.00303 -1.76217,5.12889 -0.14916,1.12587 -0.3977,2.25394 -0.5519,2.50682 -0.39232,0.64341 -8.82933,5.17229 -9.63559,5.17229 -1.18688,0 -0.69468,0.84078 0.67438,1.15187 0.73455,0.16688 1.33583,0.48009 1.33583,0.69608 0,0.21599 1.18917,-0.0554 2.64274,-0.60306 1.45358,-0.54771 2.75711,-0.87747 2.89698,-0.73277 0.42118,0.43575 -0.91659,6.36882 -2.37712,10.54199 -0.8763,2.50383 -1.37233,4.79708 -1.37614,6.36292 -0.003,1.34656 -0.22263,2.86693 -0.48731,3.37861 -0.26469,0.51167 -0.36941,1.04594 -0.23306,1.187 0.42913,0.44397 1.60455,-0.86907 1.60455,-1.79214 0,-1.07706 1.65497,-4.53099 2.17093,-4.53099 0.43885,0 1.68561,-5.78783 2.23242,-10.36267 0.52395,-4.38348 1.42033,-6.47239 2.94711,-6.86883 0.66736,-0.17329 1.33004,-0.19416 1.47278,-0.0465 0.14274,0.14768 -0.26126,1.91194 -0.89762,3.92017 -0.90642,2.86047 -1.0376,3.754 -0.60513,4.12533 0.30362,0.26067 0.70699,0.32005 0.89607,0.1323 0.71633,-0.71143 -1.34383,10.5825 -2.27015,12.44523 -0.60142,1.20938 -0.57555,1.29473 0.52348,1.72703 0.63593,0.25015 1.22046,0.45475 1.29915,0.45475 0.0787,0 0.27189,-0.88607 0.42891,-1.96939 0.15703,-1.08332 0.57267,-2.54315 0.92398,-3.24373 0.35132,-0.70058 0.77237,-2.04202 0.93534,-2.98121 0.50306,-2.89916 0.68914,-2.90471 3.66334,-0.10904 l 2.81378,2.6448 -0.83819,4.88601 -0.83819,4.88549 0.9064,-0.14315 c 0.73415,-0.11591 1.06893,-0.83489 1.76062,-3.78323 0.46973,-2.00228 0.93026,-3.73155 1.02319,-3.84266 0.0929,-0.1111 1.04506,0.23807 2.11564,0.77618 1.89677,0.95338 1.95397,1.04787 2.24999,3.6866 0.44586,3.97439 0.91439,4.30318 1.52859,1.07332 0.58432,-3.07273 1.35582,-3.65784 4.0814,-3.09387 l 1.33532,0.27647 -1.28054,-1.94924 c -1.24544,-1.89571 -1.26469,-2.01229 -0.69556,-4.25193 0.32185,-1.26657 1.0103,-4.89355 1.53013,-8.05998 0.51983,-3.16642 1.03765,-5.91249 1.15084,-6.10247 0.70671,-1.18624 1.04407,0.22397 1.04645,4.37545 10e-4,2.59643 0.13162,6.43608 0.28938,8.53281 0.27254,3.62222 0.32466,3.77035 1.04645,2.96881 0.85825,-0.9531 1.46617,-5.55575 2.30994,-17.48937 0.29104,-4.11635 0.66503,-7.4843 0.83096,-7.4843 1.00662,0 2.18834,14.86613 1.23041,15.47864 -0.20225,0.12932 -0.35364,1.41456 -0.33641,2.85616 0.0216,1.81351 0.14268,2.33748 0.39222,1.70015 0.29905,-0.76379 0.41391,-0.60618 0.67283,0.92139 0.17175,1.01326 0.34998,2.01071 0.39636,2.21692 0.0464,0.20621 0.45345,-2.53791 0.90433,-6.09781 0.45088,-3.55992 0.9977,-6.35868 1.21492,-6.21978 0.21722,0.13889 0.39481,0.58547 0.39481,0.9927 0,0.40723 0.15019,0.58569 0.33382,0.39636 0.18365,-0.18933 0.434133,-4.76664 0.556563,-10.17199 0.12242,-5.40535 0.37291,-9.98266 0.55656,-10.17199 0.80768,-0.83272 1.00958,0.91642 1.13894,9.85367 0.0757,5.23004 0.29825,9.61744 0.49455,9.74979 0.53948,0.36367 0.86102,5.06372 0.36793,5.379 -0.23659,0.15128 -0.32398,0.95138 -0.1943,1.77818 0.39145,2.49557 -0.14161,5.28857 -1.00924,5.28857 -0.86705,0 -2.122663,1.33966 -3.516063,3.75171 -0.53362,0.92371 -1.49852,2.03771 -2.14406,2.4753 -1.10973,0.75227 -1.12754,0.82142 -0.32608,1.26711 0.46621,0.25926 0.91372,0.52667 0.99477,0.59427 0.081,0.0676 -0.0842,0.57078 -0.36742,1.11828 -0.4857,0.93892 -0.45617,0.96412 0.52038,0.44132 0.56945,-0.30486 2.07444,-1.66789 3.34399,-3.02875 1.269543,-1.36087 2.482463,-2.47427 2.695963,-2.47427 0.21349,0 0.59225,0.56998 0.84129,1.26659 0.4493,1.25676 0.45538,1.2511 0.79375,-0.69712 0.35913,-2.06776 1.21315,-2.87942 2.89129,-2.74867 0.71258,0.0555 1.06464,0.45406 1.25057,1.41594 l 0.2589,1.33893 0.93483,-2.00556 c 0.63974,-1.37243 1.28635,-2.08395 2.04794,-2.25413 1.18797,-0.26543 3.04634,-3.58196 3.31814,-5.92108 0.0779,-0.6702 0.16487,-1.38407 0.19275,-1.58699 0.0279,-0.2029 0.7736,-0.68151 1.65727,-1.0635 0.88367,-0.38198 1.7071,-1.09204 1.82986,-1.57768 0.18225,-0.72106 0.38379,-0.794 1.09916,-0.39791 0.4818,0.26677 1.14615,0.3776 1.47639,0.2465 0.33024,-0.13111 0.83575,0.0553 1.12345,0.41393 0.42206,0.52614 -0.007,1.2548 -2.22416,3.77238 -3.53063,4.00945 -6.00393,8.87749 -4.51031,8.87749 0.22053,0 1.47249,-0.5164 2.78225,-1.14721 1.55807,-0.75039 3.17306,-1.14839 4.67104,-1.15136 3.11166,-0.006 3.34989,0.81116 1.12551,3.8592 -2.80788,3.8476 -3.22939,4.9434 -2.651,6.89312 0.27389,0.92327 0.66491,1.67845 0.86868,1.67845 0.20377,0 0.37052,0.39777 0.37052,0.88367 0,2.22873 0.63221,2.66455 2.65462,1.82934 1.52837,-0.63119 1.51651,-0.56317 0.49299,-2.75487 -1.42142,-3.04373 -1.22052,-4.28528 1.16169,-7.1701 l 2.08359,-2.52336 -0.97772,-4.22869 c -0.98611,-4.26471 -1.24484,-7.23015 -0.62942,-7.21247 0.57577,0.0165 4.11758,5.9236 4.11758,6.86728 0,0.4941 0.19814,1.02475 0.43977,1.17925 0.73744,0.47152 1.91141,5.277 1.44074,5.89732 -0.23144,0.305 -0.3265,1.33159 -0.21136,2.28151 0.15309,1.26294 0.42074,1.72703 0.99632,1.72703 1.17665,0 2.00918,1.31783 2.00918,3.18017 0,1.53176 0.10874,1.66692 1.44694,1.8004 0.79576,0.0794 1.44642,-0.0614 1.44642,-0.31264 0,-0.2512 -0.72989,-1.72464 -1.62212,-3.27422 l -1.62212,-2.8174 0.29559,-3.98012 0.29559,-3.9796 -1.51102,-1.64124 c -1.20895,-1.31262 -1.56446,-2.13752 -1.77612,-4.12223 -0.14553,-1.36464 -0.57137,-2.83176 -0.9462,-3.26027 -0.93637,-1.07046 -0.85605,-1.39733 0.34262,-1.39733 0.56315,0 1.21433,-0.17825 1.44694,-0.39636 0.74446,-0.69808 3.21077,0.35343 4.96094,2.11512 1.66748,1.67847 1.75456,1.70665 5.47822,1.77974 2.0812,0.0409 4.48385,0.3066 5.3392,0.59066 0.85535,0.28402 1.60163,0.51676 1.6583,0.51676 0.0567,0 -0.0183,-0.67379 -0.1664,-1.49706 -0.14813,-0.82327 -0.82633,-2.11844 -1.5074,-2.87838 -0.68107,-0.75994 -1.82015,-2.41796 -2.53111,-3.68453 l -1.29243,-2.30322 -4.64519,-0.25166 c -3.93613,-0.21361 -4.87046,-0.12577 -6.11798,0.57567 -1.77543,0.99827 -1.90696,1.01263 -1.59576,0.17363 0.15958,-0.43023 -0.11213,-0.70632 -0.79324,-0.80615 -0.76882,-0.11267 -1.03559,-0.44854 -1.03559,-1.30328 0,-1.0098 0.21909,-1.17112 1.78077,-1.31051 0.97939,-0.0874 3.18292,0.0972 4.89686,0.41031 6.37512,1.16473 7.96562,0.91427 18.47484,-2.91145 13.4652,-4.90181 13.78584,-5.05804 13.86737,-6.76496 0.0367,-0.76891 0.0871,-1.65611 0.11162,-1.97146 0.0293,-0.37669 -0.79546,-0.62644 -2.40399,-0.72812 -3.39077,-0.21434 -6.02779,-1.47572 -6.41408,-3.06803 -0.42759,-1.76256 -1.52894,-3.37508 -2.52956,-3.70365 -0.6473,-0.21255 -0.85059,-0.71235 -0.85059,-2.09083 0,-2.40168 -0.67814,-2.28841 -1.89756,0.31626 l -0.99581,2.127 -2.89388,-0.28163 c -1.59151,-0.15489 -3.94523,-0.28289 -5.23068,-0.28474 -2.25259,-0.003 -2.33733,-0.0495 -2.33733,-1.27124 0,-1.17339 0.54542,-1.55836 7.33082,-5.18108 l 7.3303,-3.91397 0.52968,-2.41226 c 0.79381,-3.61539 2.62932,-7.08129 4.27726,-8.07702 l 1.42834,-0.863 0.95136,1.53117 c 0.52321,0.84208 0.83584,1.16832 0.69505,0.72502 -0.32129,-1.01164 0.0778,-1.02724 1.1281,-0.0439 0.76051,0.71205 0.8139,0.70696 0.8139,-0.0801 0,-0.74808 0.13379,-0.71753 1.19218,0.27389 l 1.19166,1.11672 -0.96946,-1.45314 c -0.96127,-1.44062 -1.24111,-2.46186 -0.67489,-2.46186 0.16184,0 1.76719,1.14702 3.56722,2.54868 3.26462,2.54211 3.27711,2.54688 4.97128,1.9544 l 1.69808,-0.59428 -0.56224,-2.76055 c -0.30938,-1.51828 -0.57546,-3.36068 -0.59117,-4.09484 -0.0349,-1.62736 -3.4593,-5.11965 -8.48734,-8.6558 -1.83636,-1.29149 -4.44109,-3.22359 -5.78828,-4.29328 -2.19392,-1.74201 -2.75466,-1.96507 -5.37745,-2.13785 -2.35238,-0.15497 -3.37167,-0.48739 -5.18366,-1.69034 -1.82615,-1.21236 -2.21462,-1.69124 -2.03967,-2.51612 0.45711,-2.155271 0.41517,-2.132051 2.62878,-1.44281 2.04419,0.63648 4.37469,0.90563 2.85047,0.32918 -0.89789,-0.33958 -2.67115,-2.036091 -2.67115,-2.555401 0,-0.22928 0.62598,-0.27464 1.39113,-0.10077 0.96725,0.21979 1.29849,0.16118 1.08675,-0.19327 -0.1675,-0.2804 -0.58147,-0.51005 -0.91984,-0.51005 -0.33837,0 -0.75278,-0.2302 -0.92087,-0.51159 -0.21189,-0.35472 0.31328,-0.46094 1.71204,-0.34572 1.10967,0.0914 1.92476,0.0111 1.81126,-0.1788 -0.11351,-0.18998 -0.99618,-0.34571 -1.96112,-0.34571 -1.9835,0 -2.21735,-0.5108 -0.75241,-1.64228 0.75227,-0.58103 0.79778,-0.70202 0.18345,-0.48576 -0.44989,0.15837 -1.62435,0.42137 -2.61018,0.58446 -1.7332,0.28673 -1.78165,0.25987 -1.46399,-0.80719 l 0.32866,-1.10329 -1.08572,1.03612 c -1.27172,1.2139 -1.69602,1.29887 -1.69602,0.33951 0,-0.39156 -1.0644,-1.21837 -2.42983,-1.887225 -2.45935,-1.204719 -3.70318,-2.27817 -3.21944,-2.77864 0.1457,-0.150731 -0.42692,-1.695165 -1.27227,-3.431834 -0.84535,-1.73668 -1.53686,-3.293406 -1.53686,-3.459737 0,-0.166341 0.80912,-0.190029 1.79834,-0.05271 1.16069,0.16106 2.66647,0.927412 4.24522,2.160593 2.81316,2.197399 7.69489,4.713319 8.34213,4.299479 0.66672,-0.426302 -1.46957,-1.92192 -7.17114,-5.0214 -8.50086,-4.621239 -6.89976,-5.017199 3.46955,-0.85783 3.30545,1.325891 6.10445,2.319438 6.21978,2.207618 0.36297,-0.351909 -0.64447,-0.801471 -8.64392,-3.855062 -4.28915,-1.637278 -7.80218,-3.151467 -7.80676,-3.365169 -0.005,-0.213698 0.37888,-0.493249 0.85163,-0.621149 0.51108,-0.138271 0.76247,-0.494194 0.62012,-0.877983 -0.2976,-0.802351 -0.23728,-0.800954 2.08153,0.04547 1.04096,0.379971 2.64669,0.690915 3.56825,0.690915 0.92156,0 3.32184,0.322884 5.33404,0.717785 2.01221,0.394909 3.73418,0.639813 3.82664,0.544153 0.0925,-0.0957 -3.2158,-1.092224 -7.35148,-2.214335 -4.13569,-1.122119 -7.44501,-2.163755 -7.3546,-2.315104 0.0904,-0.151339 3.66291,-0.175969 7.93905,-0.05426 4.27615,0.121701 8.13394,0.0787 8.57313,-0.0956 1.51791,-0.602628 -0.34752,-1.171435 -4.07314,-1.241785 -1.95879,-0.037 -5.064,-0.204425 -6.90035,-0.372586 -3.70229,-0.33904 -3.85653,-0.117491 1.78076,-2.5616 1.59152,-0.69002 2.97897,-1.338586 3.08354,-1.441257 0.46555,-0.457068 -2.93229,0.468871 -3.52899,0.961699 -0.36727,0.30334 -2.17011,0.790176 -4.00647,1.082104 -1.83636,0.29192 -3.76513,0.654822 -4.28604,0.806153 -1.68428,0.4893 -0.7452,-2.080733 1.72082,-4.709273 1.22446,-1.305161 2.11736,-2.554997 1.98438,-2.777609 -0.0671,-0.11239 -0.53964,-0.175506 -1.25264,-0.187069 z"
       sodipodi:nodetypes="ccscccccssscssssssscsssscsccsssscccssscccccscccssccsssscsssssssssssscsscssssssscccsssssccsssssscccsccsccssssccccssscccssssssssssssscssssssssccccssssscccscscsssssssssssccccsscccsssssssssssscssssssssssssssscscccssssssccsssssssssssscssssccssscsssccssssccssssssscscccsssssscssssssscccsssssssscssccsssssscccsssssssssssssssscsccsssssssssssssssssscscssssssssssssssssssssccsssscccssssccssccccsscssssssscscssssssssssssscsssscssssssssssssssssssssssssssssssssccssscssssssssssssscssscssssssssssssssscsscsscccssssscsccscccsscccsssssscccsssssssscsssssssssssssssscsssscssssssssssssssssccccsssssscccssscssssscsssssssssssssssssssssssssccsssssssssssscssssssccccsssssscscccccsssssccssscccssssscsssssssscscscccccsscscccsscccsssssssssssssscsssscccssssscsssssscsscsscsssccsssssssss" />
  </g>
</svg>
