<?xml version="1.0" encoding="UTF-8" standalone="no"?>
<svg
   xmlns:dc="http://purl.org/dc/elements/1.1/"
   xmlns:cc="http://creativecommons.org/ns#"
   xmlns:rdf="http://www.w3.org/1999/02/22-rdf-syntax-ns#"
   xmlns:svg="http://www.w3.org/2000/svg"
   xmlns="http://www.w3.org/2000/svg"
   xmlns:sodipodi="http://sodipodi.sourceforge.net/DTD/sodipodi-0.dtd"
   xmlns:inkscape="http://www.inkscape.org/namespaces/inkscape"
   width="210mm"
   height="297mm"
   viewBox="0 0 210 297"
   version="1.1"
   id="svg8"
   inkscape:version="1.0.1 (3bc2e813f5, 2020-09-07)"
   sodipodi:docname="vereenvoudigde heks beselare.svg">
  <defs
     id="defs2" />
  <sodipodi:namedview
     id="base"
     pagecolor="#ffffff"
     bordercolor="#666666"
     borderopacity="1.0"
     inkscape:pageopacity="0.0"
     inkscape:pageshadow="2"
     inkscape:zoom="0.7"
     inkscape:cx="329.47484"
     inkscape:cy="548.94243"
     inkscape:document-units="mm"
     inkscape:current-layer="layer1"
     inkscape:document-rotation="0"
     showgrid="false"
     inkscape:window-width="1920"
     inkscape:window-height="1001"
     inkscape:window-x="-9"
     inkscape:window-y="1341"
     inkscape:window-maximized="1" />
  <metadata
     id="metadata5">
    <rdf:RDF>
      <cc:Work
         rdf:about="">
        <dc:format>image/svg+xml</dc:format>
        <dc:type
           rdf:resource="http://purl.org/dc/dcmitype/StillImage" />
        <dc:title></dc:title>
      </cc:Work>
    </rdf:RDF>
  </metadata>
  <g
     inkscape:label="Laag 1"
     inkscape:groupmode="layer"
     id="layer1">
    <path
       id="path38"
       style="fill:#000000;stroke-width:0.603921"
       d="m 53.782744,50.86851 c -7.230499,-0.05671 12.558291,12.803418 -0.955423,9.214531 -4.226952,-0.271076 -17.648653,-5.316478 -6.76228,-0.226472 14.25222,5.037455 -18.362862,1.056074 -11.797709,5.000053 6.9472,0.304674 13.904462,0.169788 20.856542,0.241806 -6.525035,1.950451 -13.742032,3.108079 -19.700599,5.830439 5.252523,0.684443 23.520975,-6.248407 19.29602,0.230011 -4.117698,2.299662 -20.82614,7.204344 -17.969046,8.347575 3.566818,-0.816377 17.622063,-8.109232 16.103022,-4.461005 -2.653742,1.955634 -18.495533,8.390985 -12.592724,9.3431 5.233626,-2.215066 22.357996,-15.247671 14.471721,-1.810584 -0.885598,6.687406 -11.353737,8.916072 -11.831917,8.243774 -0.725352,3.525202 -11.808611,-3.282921 -3.877132,2.593796 -6.196869,1.511999 -4.327573,0.658644 -0.910606,1.86013 -7.795295,2.800128 7.476249,1.057226 -2.427484,4.793636 -5.550419,2.75265 12.738361,-3.808604 6.462673,3.6884 -10.332044,3.68133 -20.466697,7.6967 -28.891539,15.59582 -8.9155042,3.01857 -10.5208867,25.33454 1.50155,14.78665 7.990223,-7.98082 1.539844,3.40156 2.741239,2.12436 3.611775,-3.30517 5.528171,-2.41799 5.519045,-1.27981 4.820622,-8.07492 10.048704,6.08942 10.428275,11.10415 6.597716,3.91682 14.342052,6.45629 19.853941,11.78239 -1.068621,2.53774 -11.251389,3.09568 -14.33725,0.99434 -5.082507,-11.34296 -5.240977,9.84637 -13.204905,9.41978 -9.503355,-2.46663 -8.680192,7.79914 -0.193442,8.89487 9.839971,3.33631 19.608876,7.72609 29.902404,9.13079 3.955641,-0.93783 22.777866,-3.71226 13.608299,2.74242 -10.581478,-4.16385 -20.286103,0.61815 -23.958723,11.14778 1.065628,3.70716 11.425121,-0.55854 15.667772,-0.26538 3.796333,-5.874 15.755833,-5.52411 9.135499,2.3968 -6.147142,7.56244 -1.697316,18.08873 -8.454909,26.04415 6.280839,1.81775 4.717339,-5.91551 8.651895,-7.93592 -1.236571,-7.12465 3.121593,-18.218 7.997244,-20.56165 1.225004,5.49413 -5.514451,12.25184 -0.181639,16.37194 7.441231,2.83494 -3.018776,17.61324 6.36713,12.71186 7.561097,-6.89708 -5.249309,-13.39577 -2.164451,-18.84545 4.96617,-1.59425 16.739138,8.28649 10.850542,-2.59025 -3.522621,-3.22911 -12.073642,-15.21991 -2.609128,-10.4554 6.695706,2.97203 4.988459,12.38654 11.914489,15.16291 0.41241,8.69026 2.52769,-6.76026 6.51693,1.23735 1.41506,4.17465 1.21987,5.68511 2.71884,0.70065 4.39539,2.77791 9.04483,11.18216 10.12396,4.56008 2.68713,-2.3606 -9.41227,-8.72123 -9.23695,-13.17305 -0.72168,-12.38376 0.16826,-24.96654 1.05332,-37.36651 4.11001,1.66936 -0.59058,19.01933 2.72709,25.02148 3.1208,0.81334 2.04332,9.96121 3.22603,14.20869 0.40129,5.92096 1.35646,-8.20421 2.75186,-1.88136 -0.57692,-9.1474 -2.4706,-18.92013 0.8009,-27.60466 0.9627,9.87314 2.07893,19.81569 2.628,29.73843 -0.54035,0.50737 3.1933,5.83823 2.63037,4.38198 1.39992,-6.77105 -0.53376,-18.96954 2.20101,-22.50671 1.46119,7.14764 2.74358,14.34119 4.22745,21.48996 -3.38369,3.63571 -3.40639,5.6098 1.95568,4.92337 3.05295,0.31568 2.82436,12.31359 4.40439,2.46642 0.38165,-8.23004 9.07979,-5.34521 7.84273,2.07716 5.25199,6.57203 0.53938,-7.69937 1.41544,-10.93076 3.57809,-4.09143 8.74693,-9.23282 8.93381,0.0802 -1.15816,5.86896 7.17173,11.34295 4.13426,2.69405 -3.90696,-9.03404 0.74488,-16.38291 -3.38998,-25.00379 10.56323,3.23351 3.36157,20.30154 11.67268,27.03377 4.68348,11.48767 0.45985,-12.77704 -2.01112,-16.16081 -3.27072,-7.60133 -0.75289,-9.24737 6.12651,-6.34353 9.02208,-4.79103 -14.67865,-4.94106 -11.28343,-14.21106 -3.73961,-7.68435 -7.25868,-21.47732 -7.4122,-26.74478 5.61181,11.16304 11.6819,22.1149 15.81403,33.96119 2.53312,-7.65368 -2.70029,-13.49173 -5.20884,-20.36587 -4.47313,-15.12904 10.72206,8.96577 12.39221,14.15561 3.91949,4.61036 5.18838,18.55692 8.49501,19.37269 0.96959,-8.20035 -6.25201,-19.0742 -10.21242,-27.30034 -3.17952,-4.81391 -11.74885,-23.91629 -0.4258,-12.49483 3.39256,5.28019 12.78198,17.52841 15.9249,16.45452 -3.66181,-9.34913 -14.47799,-15.44666 -19.39981,-24.67824 8.49666,1.1498 16.38843,11.04804 22.42768,12.64581 -7.16437,-5.47807 -11.15322,-13.36087 -19.59444,-18.54231 -6.50387,-4.82456 9.40596,-1.52628 12.07726,-1.47087 7.66064,-1.39075 12.12549,11.4116 15.52032,10.54268 7.68166,-9.3977 -4.70107,-18.8399 -9.60613,-26.2777 C 183.71443,113.06858 174.96123,96.707134 161.38705,84.668054 151.33761,77.269451 142.18962,68.08827 129.73539,64.863658 122.71894,62.658382 117.40089,57.070464 111.2615,53.561345 102.87504,52.805004 94.384076,50.415406 86.07253,52.633051 75.559439,52.392744 65.084611,51.170158 54.568314,50.914468 c -0.2915,-0.02972 -0.552328,-0.04415 -0.78557,-0.04601 z m 34.054367,20.566378 c 4.145029,6.632726 -1.254309,17.627684 -0.209956,25.928553 -0.815959,10.402279 1.135803,20.381649 -1.054503,30.764629 -0.336535,2.9575 -0.839937,11.46421 -0.865777,4.11896 -0.22095,-18.66655 -3.155235,-37.306078 -1.508629,-55.960709 0.569841,-1.960911 2.151824,-3.533766 3.638865,-4.851433 z m 15.664239,1.761048 c -0.63563,9.944781 16.05417,6.210942 11.99468,18.003253 -1.06675,7.6356 -4.95489,13.052741 -7.5785,20.880131 -4.32166,5.40477 -5.10303,11.56441 -8.005517,18.27338 -3.75979,2.8085 -6.611429,12.83797 -4.335973,1.82237 2.525667,-13.5311 7.12332,-26.86434 7.42755,-40.692793 -5.178207,2.797778 -3.179662,13.846443 -7.114965,19.068373 -1.735148,4.08627 -3.897008,13.69039 -5.818648,14.54368 1.253178,-10.40502 2.56505,-20.63706 4.682746,-30.653776 3.825471,-6.723133 6.495767,-14.13446 8.748627,-21.244618 z m -32.983353,3.01725 c 4.147277,1.186194 1.118293,15.470536 -0.03536,4.615524 -0.199948,-1.258937 -1.338341,-3.710721 0.03536,-4.615524 z m -6.560582,0.0049 c -0.300054,4.53461 -2.273519,6.345959 1.845978,5.333859 3.508482,4.898855 -7.857637,14.826525 1.965103,7.005262 1.636074,2.94153 -3.583107,13.249173 1.489752,6.643144 3.923793,10.545679 0.620977,21.304459 -1.738636,31.750739 -2.321561,8.0374 -3.421815,22.9967 -6.69976,26.86509 -4.987161,-9.79692 -8.529652,-20.36578 -14.383254,-29.69244 -4.591251,-0.78163 -7.369547,-2.13705 -8.793437,-3.94083 -0.05357,-2.87429 -7.704943,2.95226 -11.951053,-0.4034 -5.564371,2.41854 -10.223412,9.49995 -14.609729,6.53581 6.508088,-8.35479 17.690397,-17.59081 28.562452,-16.7848 2.821057,-0.20588 14.422699,-4.10232 5.681826,2.66221 -7.543755,2.50856 -5.478897,8.45628 1.783454,5.78799 4.557221,3.94783 7.487482,9.46437 10.731413,14.66281 7.979823,10.25989 -5.862079,-15.91022 5.725467,-8.46671 6.361867,4.03735 -3.233189,-6.12617 2.698777,-5.4412 -4.855751,-8.00222 -14.716763,-12.89429 -18.419627,-21.442776 3.350102,1.911534 5.556429,0.773141 6.634889,4.615526 2.322625,-0.42375 12.031163,14.15682 11.433238,10.30324 -1.936544,-7.22006 -7.290138,-15.315005 -11.993521,-18.932717 -2.311301,-4.487545 5.085683,-7.317688 6.674995,-11.840177 0.311841,-2.025048 1.268152,-4.486012 3.361673,-5.220624 z m 14.994257,0.549666 c 2.970416,7.17439 0.897858,18.676552 1.545191,27.259068 -1.452926,4.78418 -3.317231,10.84851 -2.918178,1.77048 0.261149,-9.321894 -3.473489,-20.325537 -0.461184,-28.679224 z m 54.631358,12.366255 c 7.716,1.99327 13.93346,3.621582 19.506,7.88991 5.17065,0.05158 -6.68783,6.677053 -7.45232,9.120163 -10.39683,9.87095 -20.19312,20.32171 -30.24801,30.49927 1.02706,-5.23669 12.5363,-20.65378 2.66222,-9.78543 -4.47285,3.243 -10.10797,20.39985 -12.49129,17.522 -0.53893,-10.71202 -2.60038,7.64621 -6.036864,9.82081 -1.961767,4.94188 -10.896639,15.16783 -4.83727,3.92314 6.603684,-13.74656 11.628464,-28.16996 17.780314,-42.11415 2.35701,-10.92383 9.00145,-24.595708 21.11722,-26.875713 z m 21.07948,15.411803 c 7.40014,3.566 12.92123,9.87164 20.77988,13.48917 -5.63659,-11.18392 7.00186,4.2593 10.00128,7.46883 3.57876,4.80559 13.03573,13.3117 12.46415,16.25281 -4.18877,-3.29472 -9.27345,-2.52468 -8.92199,-7.06777 -5.15334,1.43611 1.41379,-4.72117 -5.77973,-1.74806 -5.27091,-2.99548 -14.21985,-0.5379 -22.06085,0.86459 l -12.91121,2.26353 c 2.95978,-3.05119 12.73599,-10.34159 7.95363,-12.22942 -3.65494,3.86836 -5.85382,-0.42475 -6.04277,-0.26422 1.34261,-3.88882 -10.45713,5.93043 -14.9164,5.70424 -10.88579,1.57305 9.56028,-10.05954 11.40138,-14.23111 2.32744,-3.72492 5.73506,-6.32709 8.03263,-10.50259 z m -101.977913,5.44235 c 5.891279,2.09082 6.038667,9.32728 -0.464736,2.7778 -0.530854,-0.78851 -0.297849,-2.24036 0.464736,-2.7778 z m 20.94855,12.76846 c 0.750978,3.01681 2.726203,8.5417 -0.26775,6.00856 -1.368735,10.17796 -4.717898,21.76003 -4.276999,31.15389 1.082798,-3.68669 3.443448,-20.05257 3.4006,-8.36172 -1.198763,4.9551 -1.819897,13.47938 0.672342,3.2909 1.211147,-5.16434 4.323462,-20.84305 4.036358,-7.2565 0.230385,2.81849 0.966618,9.06923 -1.331686,4.95995 -1.667262,4.52135 -5.468082,17.85717 0.04953,12.98669 -0.765811,4.91604 0.725023,16.70309 -5.771465,16.7895 -8.971966,0.66377 -17.408716,3.16323 -24.424643,-2.39092 -3.552125,-2.79245 -9.0933,-2.1775 -13.556405,-3.66482 -4.330948,-1.32229 -17.50791,-5.35881 -5.740799,-6.47093 6.959145,-3.61032 11.550187,0.23578 18.663792,-0.41401 1.261732,-4.13959 -3.282015,-5.89478 -4.101247,-3.84529 -5.297292,-6.10341 11.493163,-3.66267 14.915228,-1.80234 -0.505676,10.18187 4.220487,5.64744 6.461497,2.14559 4.8941,10.93133 -2.194556,-9.84082 3.493781,-7.84156 3.019429,-10.99175 3.674562,-22.47543 6.764645,-33.41035 l 0.91531,-1.84125 z m -39.538029,0.39397 c 5.243794,1.07383 8.732388,7.55194 -0.05423,4.60372 -5.553771,-1.0684 -20.250042,3.25804 -7.549027,-2.34845 2.626271,-0.66819 5.097634,-1.36748 7.603284,-2.25527 z m 4.005701,9.84912 c -1.2763,6.33804 3.353796,-0.88397 2.546617,3.10454 3.580366,-3.93484 0.845347,5.26919 4.416181,-2.13968 1.68911,-0.13371 4.396199,5.99919 5.832803,8.94561 3.12151,2.16885 8.633653,20.30388 -0.432886,9.02225 -3.615911,-5.85746 -13.391945,-4.4565 -14.628601,-12.89822 -3.305061,-2.54251 0.285613,-4.39824 2.265886,-6.0345 z m 29.534391,4.47517 c 1.911244,5.20623 -3.686758,9.29642 -0.513099,0.97546 z m 69.02171,9.36079 c 2.69875,5.69508 6.63992,17.58821 2.7483,21.19271 -1.34741,-6.51791 -2.73832,-14.30899 -2.7483,-21.19271 z m -6.04041,9.96472 c 4.28531,10.0153 2.88038,21.94494 7.63868,32.04915 1.2111,2.43029 -0.83012,-20.14786 1.71149,-7.55492 2.10529,8.03136 7.68029,19.16638 -0.63223,24.77378 -3.2444,-15.25252 -8.43956,-30.36608 -8.95032,-46.03492 l 0.0565,-1.68083 z m 15.43304,1.07926 c 4.12464,4.63978 5.17615,21.80431 -0.63931,11.33653 0.22004,-3.73311 -0.55192,-7.83379 0.63931,-11.33653 z m -68.010841,11.99117 c 2.192496,7.24405 -3.044773,8.30509 0,0 z m 27.734421,2.23521 c 1.91846,9.18648 1.87605,18.73718 2.32369,28.2546 0.6723,8.63668 -5.78506,5.4716 -2.71883,-1.42725 1.05914,-8.90857 -0.44206,-18.07273 0.39514,-26.82735 z m -10.155804,3.10926 c -5.446365,7.73785 5.458044,18.21002 3.227215,23.73226 -3.121879,-8.30374 -17.347203,-8.74955 -8.136437,-17.54913 1.40653,-2.14934 2.573326,-4.85992 4.909222,-6.18313 z m 52.547124,6.37067 c 4.33124,0.63757 6.54777,9.87935 3.44189,12.78146 -3.25942,5.2479 -6.82671,-13.22101 -3.44189,-12.78146 z m -33.03053,15.07329 c -3.81616,2.30586 1.87809,15.5312 1.28805,4.83137 -0.41289,-1.30483 0.90994,-4.74364 -1.28805,-4.83137 z m 15.44013,9.87152 c -2.15766,8.01385 5.91386,5.95735 0,0 z m -6.36359,5.88353 c -2.06124,4.00147 6.11686,3.11332 0,0 z"
       sodipodi:nodetypes="cccccccccccccccccccccccccccccccccccccccccccccccccccccccccccccccccccccccccccccccccccccccccccccccccccccccsccccccccccccccccccccssccccccccccccccccccccccccccccccccccccccccccccccccccccccccccccccccccccccccccccccccccccccccccccccccccc" />
  </g>
</svg>
