<?xml version="1.0" encoding="UTF-8" standalone="no"?>
<!-- Created with Inkscape (http://www.inkscape.org/) -->

<svg
   xmlns:dc="http://purl.org/dc/elements/1.1/"
   xmlns:cc="http://creativecommons.org/ns#"
   xmlns:rdf="http://www.w3.org/1999/02/22-rdf-syntax-ns#"
   xmlns:svg="http://www.w3.org/2000/svg"
   xmlns="http://www.w3.org/2000/svg"
   xmlns:sodipodi="http://sodipodi.sourceforge.net/DTD/sodipodi-0.dtd"
   xmlns:inkscape="http://www.inkscape.org/namespaces/inkscape"
   width="53.464359mm"
   height="25.721581mm"
   viewBox="0 0 53.464359 25.72158"
   version="1.1"
   id="svg1554"
   inkscape:version="0.92.1 r15371"
   sodipodi:docname="logo.svg"
   inkscape:export-filename="/home/amy/Documents/Ingegno/FabZero/logo.png"
   inkscape:export-xdpi="96"
   inkscape:export-ydpi="96">
  <defs
     id="defs1548" />
  <sodipodi:namedview
     id="base"
     pagecolor="#ffffff"
     bordercolor="#666666"
     borderopacity="1.0"
     inkscape:pageopacity="0.0"
     inkscape:pageshadow="2"
     inkscape:zoom="1.5318615"
     inkscape:cx="84.507708"
     inkscape:cy="13.480838"
     inkscape:document-units="mm"
     inkscape:current-layer="layer1"
     showgrid="false"
     fit-margin-top="0"
     fit-margin-left="0"
     fit-margin-right="0"
     fit-margin-bottom="0"
     inkscape:window-width="1156"
     inkscape:window-height="545"
     inkscape:window-x="105"
     inkscape:window-y="112"
     inkscape:window-maximized="0" />
  <metadata
     id="metadata1551">
    <rdf:RDF>
      <cc:Work
         rdf:about="">
        <dc:format>image/svg+xml</dc:format>
        <dc:type
           rdf:resource="http://purl.org/dc/dcmitype/StillImage" />
        <dc:title></dc:title>
      </cc:Work>
    </rdf:RDF>
  </metadata>
  <g
     inkscape:label="Layer 1"
     inkscape:groupmode="layer"
     id="layer1"
     transform="translate(91.274295,-107.46081)">
    <g
       id="g4700"
       transform="matrix(0.95064738,0,0,0.95064738,-3.8542545,5.9519707)">
      <path
         id="path859-8-9-3"
         d="m -79.903369,130.74758 c -1.517511,-0.23585 -2.942803,-0.79197 -4.237253,-1.65327 -4.285434,-2.85142 -5.861219,-8.38028 -3.740593,-13.12435 0.152418,-0.34098 0.301839,-0.60829 0.332048,-0.59403 0.03022,0.0143 0.229098,0.12874 0.441978,0.2544 l 0.387049,0.22847 0.02421,4.65823 0.02421,4.65822 1.233743,0.70936 c 0.678564,0.39014 1.26459,0.71003 1.302286,0.71086 0.03771,7.3e-4 0.06856,-0.40505 0.06856,-0.90196 0,-0.89351 -0.0039,-0.90939 -0.350513,-1.43938 -0.93942,-1.43632 -1.145884,-2.91256 -0.566244,-4.04874 0.792881,-1.5542 3.119999,-1.06323 4.460559,0.94108 1.113866,1.66536 1.194572,3.61763 0.187566,4.53739 -0.164641,0.15037 -0.351859,0.2734 -0.416056,0.2734 -0.08925,0 -0.116707,0.30712 -0.116707,1.30491 v 1.30491 l 1.09666,0.63069 1.096663,0.6307 v 0.53189 c 0,0.61743 0.08354,0.59109 -1.228154,0.38722 z"
         style="fill:#008000;stroke-width:0.09138881"
         inkscape:connector-curvature="0" />
      <path
         id="path857-5-3-0"
         d="m -77.944097,130.34326 v -0.50999 l 2.804923,-1.64099 c 1.542694,-0.90255 3.341915,-1.95383 3.998249,-2.3362 l 1.193341,-0.69521 0.02494,-1.61236 c 0.01376,-0.88679 -0.0068,-1.61195 -0.04569,-1.61145 -0.03886,2.9e-4 -0.378317,0.17612 -0.754361,0.39026 -0.661692,0.37682 -0.691119,0.40846 -0.913889,0.98282 -0.33842,0.87254 -0.669483,1.38519 -1.206142,1.86769 -0.676985,0.60867 -1.275277,0.88969 -1.994172,0.93668 -1.19906,0.0784 -1.913149,-0.62779 -1.990769,-1.9687 -0.05321,-0.91907 0.09303,-1.59175 0.540265,-2.4853 1.033753,-2.06538 3.095076,-3.04079 4.294035,-2.03193 l 0.292963,0.24651 0.876396,-0.46166 0.876411,-0.46165 0.02518,-1.54649 0.02521,-1.54649 0.358463,-0.20562 c 0.197152,-0.1131 0.396216,-0.20563 0.442354,-0.20563 0.122384,0 0.626242,1.17127 0.876802,2.03823 0.79181,2.73981 0.393914,5.77808 -1.081528,8.25847 -1.677923,2.8208 -4.716246,4.75248 -7.934749,5.0447 l -0.708265,0.0643 z"
         style="fill:#0000ff;stroke-width:0.09138881"
         inkscape:connector-curvature="0" />
      <path
         id="path853-1-1-0"
         d="m -79.278186,117.73254 c -1.280098,-0.18769 -2.409271,-0.83704 -2.77719,-1.59705 -0.11675,-0.24118 -0.184003,-0.56575 -0.184003,-0.88809 v -0.50801 l -0.783772,-0.46842 c -0.431073,-0.25763 -0.798862,-0.46842 -0.817311,-0.46842 -0.01845,0 -0.570314,0.329 -1.226373,0.73111 -0.65606,0.40211 -1.234961,0.73111 -1.286443,0.73111 -0.133332,0 -0.821091,-0.44493 -0.821091,-0.53119 0,-0.16473 0.872472,-1.25253 1.514744,-1.88858 1.486926,-1.47251 3.4749,-2.4853 5.584012,-2.84481 1.253932,-0.21374 3.147268,-0.13854 4.329458,0.17196 2.389563,0.62761 4.395493,1.96522 5.849908,3.90086 0.587677,0.78213 0.585172,0.75609 0.09915,1.0293 l -0.42948,0.24142 -1.505505,-0.87241 c -0.828028,-0.47983 -2.08125,-1.2098 -2.784939,-1.62217 -3.237445,-1.89713 -3.689661,-2.15382 -3.794553,-2.15382 -0.130709,0 -2.739755,1.47596 -2.739755,1.5499 0,0.0275 0.253558,0.20842 0.563449,0.40213 l 0.56345,0.35221 0.834617,-0.11047 c 1.053391,-0.13942 2.054343,0.0227 2.889916,0.46805 0.676449,0.36055 1.049712,0.79289 1.236988,1.43279 0.202409,0.69159 0.05798,1.24133 -0.484684,1.84491 -0.819933,0.91196 -2.267758,1.32685 -3.830598,1.09769 z"
         style="fill:#ff0000;stroke-width:0.09138881"
         inkscape:connector-curvature="0" />
    </g>
    <path
       style="opacity:1;fill:none;fill-opacity:1;stroke:#000000;stroke-width:1.078;stroke-miterlimit:4;stroke-dasharray:none;stroke-dashoffset:0;stroke-opacity:1"
       d="m -68.445352,125.23546 c -1.826866,3.60201 -5.565475,6.07059 -9.880654,6.07059 -6.114878,0 -11.071953,-4.95708 -11.071953,-11.07195 0,-6.11487 4.95709,-11.07196 11.071953,-11.07196 3.898645,0 7.326653,2.01502 9.299378,5.0604 0.8418,1.29951 0.04961,0.055 0.04961,0.055 l 0.698751,1.13334 1.306036,-1.02899 c 2.007089,-1.58132 2.571668,-1.41848 2.707404,0.78088 l 0.07939,1.28647 10.797454,0.0794 c 11.963916,0.088 10.904225,-0.007 12.569448,1.1316 0.690716,0.47246 1.385076,1.41931 1.296566,1.76806 -0.02838,0.11194 -1.0255,1.11302 -2.215768,2.22462 l -2.164129,2.02109 h -1.256641 -1.256653 l -0.940983,-0.79564 -0.940985,-0.79564 -1.357675,1.35139 -1.357681,1.35139 -0.94957,-0.001 -0.949571,-10e-4 -1.349683,-1.25642 -1.349684,-1.25642 -1.468202,1.45236 -1.468215,1.45235 -1.076344,-1.06811 -1.076358,-1.0681 h -1.721933 -1.721932 l 0.102978,1.62755 c 0.108105,1.70863 -0.04123,2.36669 -0.559843,2.46656 -0.13675,0.0263 -0.947965,-0.34817 -1.802711,-0.83223 -0.854732,-0.48406 -1.618129,-0.88011 -1.696431,-0.88011 -0.0783,0 -0.345371,-0.18511 -0.345371,-0.18511 z"
       id="path1000-4-4"
       inkscape:connector-curvature="0"
       sodipodi:nodetypes="cssscccsccsscccccccccccccccccccccccc" />
    <g
       aria-label="FabZero"
       transform="matrix(0.1036205,0,0,0.1036205,-47.090427,214.19402)"
       style="font-style:normal;font-variant:normal;font-weight:normal;font-stretch:normal;font-size:40px;line-height:1;font-family:sans-serif;-inkscape-font-specification:sans-serif;letter-spacing:0px;word-spacing:0px;fill:#000000;fill-opacity:1;stroke:none"
       id="flowRoot899-4-8-5">
      <path
         d="m -103.88031,-920.54299 -3.8,-8.2 h -22.84 v 3.28 l 0.8,0.08 c 2.24,0.24 2.72,0.8 2.72,3.36 v 13.8 c 0,2.56 -0.48,3.12 -2.72,3.36 l -0.8,0.08 v 3.28 h 14.32 v -3.28 l -1.08,-0.08 c -0.92,-0.08 -1.88,-0.4 -2.24,-0.84 -0.36,-0.4 -0.48,-1 -0.48,-2.52 v -5.64 h 0.92 c 1.88,0 2.36,0.08 2.96,0.52 0.72,0.56 1.16,1.84 1.36,4.16 h 2.96 v -12.96 h -2.96 c -0.2,2 -0.48,3.04 -1,3.6 -0.52,0.6 -1.12,0.76 -3.08,0.76 h -1.16 v -3.76 c 0,-1.84 0.08,-2.28 0.36,-2.68 0.36,-0.48 1.36,-0.72 3,-0.72 4.16,0 6.88,1.56 10,5.8 z"
         style="font-style:normal;font-variant:normal;font-weight:bold;font-stretch:normal;font-family:'URW Bookman L';-inkscape-font-specification:'URW Bookman L Bold'"
         id="path2129"
         inkscape:connector-curvature="0" />
      <path
         d="m -82.852812,-905.90299 c -0.08,0.08 -0.16,0.16 -0.28,0.24 -0.32,0.32 -0.52,0.44 -0.72,0.44 -0.28,0 -0.6,-0.2 -0.680001,-0.44 -0.119999,-0.28 -0.119999,-0.28 -0.16,-1.8 v -7.88 c 0,-2.12 -0.439999,-3.4 -1.519999,-4.44 -1.4,-1.36 -4.08,-2.16 -7.2,-2.16 -5.16,0 -8.879998,2.32 -8.879998,5.52 0,1.68 1.28,3 2.959997,3 0.960001,0 1.960001,-0.4 2.52,-1.08 0.400001,-0.48 0.56,-1.04 0.56,-2 0,-0.56 0.120001,-0.84 0.36,-1.04 0.480001,-0.44 1.36,-0.72 2.2,-0.72 1.72,0 2.520001,0.72 2.520001,2.16 v 2.04 c -2.2,0.2 -4.12,0.56 -5.84,1.08 -3.999998,1.2 -5.999998,3.32 -5.999998,6.36 0,3.28 2.56,5.48 6.359998,5.48 2.24,0 4.36,-0.68 6.36,-2.04 0.959999,1.24 2.759999,2.04 4.599999,2.04 1.800001,0 3.280001,-0.6 5.08,-2.04 z m -8.32,-0.96 c -1.04,0.96 -2.04,1.4 -3.160001,1.4 -1.119999,0 -1.879999,-0.8 -1.879999,-2 0,-1.68 1.56,-2.76 5.04,-3.4 z"
         style="font-style:normal;font-variant:normal;font-weight:bold;font-stretch:normal;font-family:'URW Bookman L';-inkscape-font-specification:'URW Bookman L Bold'"
         id="path2131"
         inkscape:connector-curvature="0" />
      <path
         d="m -72.289687,-930.46299 h -2.6 c -2.160001,0.96 -5.12,1.72 -6.84,1.72 v 3.24 l 0.599999,0.08 c 1.960001,0.24 2.36,0.8 2.36,3.24 v 20.68 h 4.72 l 0.72,-1.28 c 2.64,1.32 3.72,1.64 5.72,1.64 5.48,0 9.400001,-4.28 9.400001,-10.28 0,-6.16 -3.8,-10.52 -9.200001,-10.52 -1.519999,0 -2.92,0.32 -4.879999,1.16 z m 0,13.92 c 1,-1.04 2.08,-1.52 3.439999,-1.52 2.480001,0 3.840001,2.16 3.840001,6.12 0,4.36 -1.400001,6.72 -4.040001,6.72 -1.319999,0 -2.399999,-0.48 -3.239999,-1.4 z"
         style="font-style:normal;font-variant:normal;font-weight:bold;font-stretch:normal;font-family:'URW Bookman L';-inkscape-font-specification:'URW Bookman L Bold'"
         id="path2133"
         inkscape:connector-curvature="0" />
      <path
         d="m -33.425313,-928.74299 h -19.319999 l -3.96,8.72 2.76,1.16 c 2.159999,-4.2 5.6,-6.4 10.079999,-6.4 0.560001,0 1.08,0.04 2.400001,0.16 l -15.24,21 0.64,2.6 h 20.96 l 3.559999,-9.36 -2.96,-0.96 c -0.759999,2.04 -1.559999,3.24 -2.879999,4.36 -1.8,1.6 -4.6,2.48 -7.64,2.48 -0.96,0 -1.64,-0.08 -2.840001,-0.28 l 15.120001,-20.92 z"
         style="font-style:normal;font-variant:normal;font-weight:bold;font-stretch:normal;font-family:'URW Bookman L';-inkscape-font-specification:'URW Bookman L Bold'"
         id="path2135"
         inkscape:connector-curvature="0" />
      <path
         d="m -9.8803125,-911.66299 c 0,-2.84 -0.2800005,-4.48 -1.0400005,-5.84 -1.56,-2.76 -4.799999,-4.44 -8.64,-4.44 -6.159999,0 -10.52,4.28 -10.52,10.32 0,6.08 4.560001,10.48 10.88,10.48 3.040001,0 5.800001,-1.08 7.56,-3 0.760001,-0.8 1.240001,-1.44 2.2400005,-3.08 l -3.3599995,-1.64 c -1.560001,2.32 -3.200001,3.4 -5.24,3.4 -3.12,0 -4.880001,-2.28 -4.84,-6.2 z m -12.7199995,-3.08 c 0.12,-2.2 1.2,-3.52 3,-3.52 1.8,0 2.56,1 2.64,3.52 z"
         style="font-style:normal;font-variant:normal;font-weight:bold;font-stretch:normal;font-family:'URW Bookman L';-inkscape-font-specification:'URW Bookman L Bold'"
         id="path2137"
         inkscape:connector-curvature="0" />
      <path
         d="m 1.4828125,-921.58299 h -2.48 l -6.24,1.16 v 3.24 l 0.72,0.08 c 1.76,0.2 2.2,0.84 2.2,3.28 v 5.76 c 0,2.28 -0.24,2.68 -1.76,3.04 l -1.16,0.28 v 3.24 h 12.32 v -3.24 l -1.16,-0.28 c -1.52,-0.36 -1.76,-0.76 -1.76,-3.04 v -7.76 c 0.56,-0.48 0.96,-0.64 1.6,-0.64 0.48,0 0.48,0 1.4,0.6 0.72,0.48 1.28,0.64 2.04,0.64 1.8,0 3.1600005,-1.28 3.1600005,-3.04 0,-2.08 -1.5600005,-3.68 -3.6000005,-3.68 -1.64,0 -2.64,0.44 -5.28,2.32 z"
         style="font-style:normal;font-variant:normal;font-weight:bold;font-stretch:normal;font-family:'URW Bookman L';-inkscape-font-specification:'URW Bookman L Bold'"
         id="path2139"
         inkscape:connector-curvature="0" />
      <path
         d="m 22.440312,-921.94299 c -6.479999,0 -10.879999,4.08 -10.879999,10.12 0,6.56 4.28,10.68 11.079999,10.68 6.720001,0 11.08,-4.04 11.08,-10.28 0,-6.44 -4.4,-10.52 -11.28,-10.52 z m 0.24,4.08 c 2.52,0 3.76,2.2 3.76,6.6 0,4.08 -1.32,6.24 -3.76,6.24 -2.52,0 -3.84,-2.16 -3.84,-6.32 0,-4.32 1.28,-6.52 3.84,-6.52 z"
         style="font-style:normal;font-variant:normal;font-weight:bold;font-stretch:normal;font-family:'URW Bookman L';-inkscape-font-specification:'URW Bookman L Bold'"
         id="path2141"
         inkscape:connector-curvature="0" />
    </g>
    <path
       inkscape:connector-curvature="0"
       id="path2144"
       style="font-style:normal;font-variant:normal;font-weight:normal;font-stretch:normal;font-size:medium;line-height:1;font-family:Gubbi;-inkscape-font-specification:Gubbi;letter-spacing:0px;word-spacing:0px;fill:#000000;fill-opacity:1;stroke:none;stroke-width:0.08265348"
       d="m -67.772409,128.90652 h 0.326094 v 2.41019 h -0.326094 z" />
    <path
       inkscape:connector-curvature="0"
       id="path2146"
       style="font-style:normal;font-variant:normal;font-weight:normal;font-stretch:normal;font-size:medium;line-height:1;font-family:Gubbi;-inkscape-font-specification:Gubbi;letter-spacing:0px;word-spacing:0px;fill:#000000;fill-opacity:1;stroke:none;stroke-width:0.08265348"
       d="m -64.961743,130.22543 v 1.09128 h -0.297036 v -1.0816 q 0,-0.25668 -0.100088,-0.38421 -0.100088,-0.12753 -0.300264,-0.12753 -0.240534,0 -0.379367,0.15336 -0.138832,0.15336 -0.138832,0.41811 v 1.02187 h -0.29865 v -1.80804 h 0.29865 v 0.28089 q 0.106545,-0.16305 0.25022,-0.24377 0.14529,-0.0807 0.334166,-0.0807 0.311565,0 0.471383,0.19372 0.159818,0.1921 0.159818,0.56663 z" />
    <path
       inkscape:connector-curvature="0"
       id="path2148"
       style="font-style:normal;font-variant:normal;font-weight:normal;font-stretch:normal;font-size:medium;line-height:1;font-family:Gubbi;-inkscape-font-specification:Gubbi;letter-spacing:0px;word-spacing:0px;fill:#000000;fill-opacity:1;stroke:none;stroke-width:0.08265348"
       d="m -62.929488,129.57808 v 0.27767 q -0.125917,-0.0694 -0.253449,-0.10332 -0.125917,-0.0355 -0.255063,-0.0355 -0.288965,0 -0.448783,0.18404 -0.159818,0.18242 -0.159818,0.51335 0,0.33094 0.159818,0.51497 0.159818,0.18242 0.448783,0.18242 0.129146,0 0.255063,-0.0339 0.127532,-0.0355 0.253449,-0.10493 v 0.27443 q -0.124303,0.0581 -0.258292,0.0872 -0.132374,0.0291 -0.282507,0.0291 -0.408424,0 -0.648959,-0.25668 -0.240535,-0.25668 -0.240535,-0.69255 0,-0.44232 0.242149,-0.69577 0.243764,-0.25345 0.666717,-0.25345 0.137217,0 0.267978,0.0291 0.130761,0.0274 0.253449,0.0839 z" />
    <path
       inkscape:connector-curvature="0"
       id="path2150"
       style="font-style:normal;font-variant:normal;font-weight:normal;font-stretch:normal;font-size:medium;line-height:1;font-family:Gubbi;-inkscape-font-specification:Gubbi;letter-spacing:0px;word-spacing:0px;fill:#000000;fill-opacity:1;stroke:none;stroke-width:0.08265348"
       d="m -62.086381,128.80482 h 0.297036 v 2.51189 h -0.297036 z" />
    <path
       inkscape:connector-curvature="0"
       id="path2152"
       style="font-style:normal;font-variant:normal;font-weight:normal;font-stretch:normal;font-size:medium;line-height:1;font-family:Gubbi;-inkscape-font-specification:Gubbi;letter-spacing:0px;word-spacing:0px;fill:#000000;fill-opacity:1;stroke:none;stroke-width:0.08265348"
       d="m -60.988209,130.60318 v -1.09451 h 0.297036 v 1.08321 q 0,0.25668 0.100088,0.38582 0.100088,0.12753 0.300265,0.12753 0.240535,0 0.379366,-0.15336 0.140447,-0.15336 0.140447,-0.41811 v -1.02509 h 0.297035 v 1.80804 h -0.297035 v -0.27766 q -0.10816,0.16466 -0.251835,0.24537 -0.142061,0.0791 -0.330937,0.0791 -0.311565,0 -0.472998,-0.19372 -0.161432,-0.19372 -0.161432,-0.56663 z m 0.747433,-1.1381 z" />
    <path
       inkscape:connector-curvature="0"
       id="path2154"
       style="font-style:normal;font-variant:normal;font-weight:normal;font-stretch:normal;font-size:medium;line-height:1;font-family:Gubbi;-inkscape-font-specification:Gubbi;letter-spacing:0px;word-spacing:0px;fill:#000000;fill-opacity:1;stroke:none;stroke-width:0.08265348"
       d="m -57.562791,129.56194 v 0.28089 q -0.125917,-0.0646 -0.26152,-0.0969 -0.135604,-0.0323 -0.280893,-0.0323 -0.221163,0 -0.332551,0.0678 -0.109774,0.0678 -0.109774,0.2034 0,0.10332 0.0791,0.16305 0.0791,0.0581 0.318022,0.11139 l 0.101702,0.0226 q 0.316408,0.0678 0.448783,0.1921 0.133989,0.12269 0.133989,0.34385 0,0.25184 -0.200176,0.39874 -0.198562,0.14691 -0.547257,0.14691 -0.14529,0 -0.303493,-0.0291 -0.15659,-0.0275 -0.330937,-0.084 v -0.30672 q 0.164661,0.0856 0.32448,0.12915 0.159818,0.042 0.316407,0.042 0.209862,0 0.322865,-0.071 0.113003,-0.0727 0.113003,-0.20341 0,-0.12107 -0.08233,-0.18564 -0.08072,-0.0646 -0.356766,-0.12431 l -0.103317,-0.0242 q -0.276049,-0.0581 -0.398739,-0.17758 -0.122688,-0.12107 -0.122688,-0.33093 0,-0.25507 0.180804,-0.3939 0.180805,-0.13883 0.513355,-0.13883 0.164662,0 0.309951,0.0242 0.14529,0.0242 0.267978,0.0726 z" />
    <path
       inkscape:connector-curvature="0"
       id="path2156"
       style="font-style:normal;font-variant:normal;font-weight:normal;font-stretch:normal;font-size:medium;line-height:1;font-family:Gubbi;-inkscape-font-specification:Gubbi;letter-spacing:0px;word-spacing:0px;fill:#000000;fill-opacity:1;stroke:none;stroke-width:0.08265348"
       d="m -56.414879,129.50867 h 0.297036 v 1.80804 h -0.297036 z m 0,-0.70385 h 0.297036 v 0.37614 h -0.297036 z" />
    <path
       inkscape:connector-curvature="0"
       id="path2158"
       style="font-style:normal;font-variant:normal;font-weight:normal;font-stretch:normal;font-size:medium;line-height:1;font-family:Gubbi;-inkscape-font-specification:Gubbi;letter-spacing:0px;word-spacing:0px;fill:#000000;fill-opacity:1;stroke:none;stroke-width:0.08265348"
       d="m -53.883472,130.33843 v 0.14529 h -1.36572 q 0.01937,0.30672 0.184033,0.46815 0.166276,0.15982 0.461698,0.15982 0.171118,0 0.330936,-0.042 0.161433,-0.042 0.319637,-0.12592 v 0.28089 q -0.159818,0.0678 -0.327708,0.10332 -0.16789,0.0355 -0.340623,0.0355 -0.432639,0 -0.686089,-0.25184 -0.251834,-0.25183 -0.251834,-0.68124 0,-0.44394 0.23892,-0.70385 0.240534,-0.26152 0.647344,-0.26152 0.364838,0 0.576315,0.23569 0.213091,0.23408 0.213091,0.63766 z m -0.297036,-0.0872 q -0.0032,-0.24377 -0.137218,-0.38906 -0.132375,-0.14529 -0.351923,-0.14529 -0.248606,0 -0.398738,0.14045 -0.148518,0.14045 -0.171119,0.39551 z" />
    <path
       inkscape:connector-curvature="0"
       id="path2160"
       style="font-style:normal;font-variant:normal;font-weight:normal;font-stretch:normal;font-size:medium;line-height:1;font-family:Gubbi;-inkscape-font-specification:Gubbi;letter-spacing:0px;word-spacing:0px;fill:#000000;fill-opacity:1;stroke:none;stroke-width:0.08265348"
       d="m -53.537895,129.50867 h 0.314794 l 0.565014,1.51746 0.565014,-1.51746 h 0.314793 l -0.678016,1.80804 h -0.403582 z" />
    <path
       inkscape:connector-curvature="0"
       id="path2162"
       style="font-style:normal;font-variant:normal;font-weight:normal;font-stretch:normal;font-size:medium;line-height:1;font-family:Gubbi;-inkscape-font-specification:Gubbi;letter-spacing:0px;word-spacing:0px;fill:#000000;fill-opacity:1;stroke:none;stroke-width:0.08265348"
       d="m -49.757032,130.33843 v 0.14529 h -1.365719 q 0.01937,0.30672 0.184033,0.46815 0.166275,0.15982 0.461697,0.15982 0.171118,0 0.330937,-0.042 0.161432,-0.042 0.319636,-0.12592 v 0.28089 q -0.159818,0.0678 -0.327708,0.10332 -0.16789,0.0355 -0.340623,0.0355 -0.432639,0 -0.686088,-0.25184 -0.251835,-0.25183 -0.251835,-0.68124 0,-0.44394 0.23892,-0.70385 0.240535,-0.26152 0.647345,-0.26152 0.364837,0 0.576314,0.23569 0.213091,0.23408 0.213091,0.63766 z m -0.297036,-0.0872 q -0.0032,-0.24377 -0.137218,-0.38906 -0.132374,-0.14529 -0.351922,-0.14529 -0.248607,0 -0.398739,0.14045 -0.148518,0.14045 -0.171118,0.39551 z" />
    <path
       inkscape:connector-curvature="0"
       id="path2164"
       style="font-style:normal;font-variant:normal;font-weight:normal;font-stretch:normal;font-size:medium;line-height:1;font-family:Gubbi;-inkscape-font-specification:Gubbi;letter-spacing:0px;word-spacing:0px;fill:#000000;fill-opacity:1;stroke:none;stroke-width:0.08265348"
       d="m -48.188794,128.90652 h 0.326093 v 1.01864 l 1.081599,-1.01864 h 0.419724 l -1.196215,1.12357 1.281775,1.28662 h -0.429411 l -1.157472,-1.1607 v 1.1607 h -0.326093 z" />
    <path
       inkscape:connector-curvature="0"
       id="path2166"
       style="font-style:normal;font-variant:normal;font-weight:normal;font-stretch:normal;font-size:medium;line-height:1;font-family:Gubbi;-inkscape-font-specification:Gubbi;letter-spacing:0px;word-spacing:0px;fill:#000000;fill-opacity:1;stroke:none;stroke-width:0.08265348"
       d="m -45.989959,128.90652 h 1.523924 v 0.27444 h -1.19783 v 0.71353 h 1.147786 v 0.27443 h -1.147786 v 0.87335 h 1.226888 v 0.27444 h -1.552982 z" />
    <path
       inkscape:connector-curvature="0"
       id="path2168"
       style="font-style:normal;font-variant:normal;font-weight:normal;font-stretch:normal;font-size:medium;line-height:1;font-family:Gubbi;-inkscape-font-specification:Gubbi;letter-spacing:0px;word-spacing:0px;fill:#000000;fill-opacity:1;stroke:none;stroke-width:0.08265348"
       d="m -44.041363,128.90652 h 2.038894 v 0.27444 h -0.855593 v 2.13575 h -0.327708 v -2.13575 h -0.855593 z" />
    <path
       inkscape:connector-curvature="0"
       id="path2170"
       style="font-style:normal;font-variant:normal;font-weight:normal;font-stretch:normal;font-size:medium;line-height:1;font-family:Gubbi;-inkscape-font-specification:Gubbi;letter-spacing:0px;word-spacing:0px;fill:#000000;fill-opacity:1;stroke:none;stroke-width:0.08265348"
       d="m -41.284746,129.42956 q 0,0.44717 -0.413267,0.67318 l -0.05973,-0.0517 q 0.292193,-0.20341 0.292193,-0.47623 -0.02583,0.003 -0.05812,0.003 -0.230849,0 -0.230849,-0.20179 0,-0.10654 0.07264,-0.17273 0.06619,-0.063 0.15659,-0.063 0.09686,0 0.164661,0.071 0.07587,0.0791 0.07587,0.21794 z" />
    <path
       inkscape:connector-curvature="0"
       id="path2172"
       style="font-style:normal;font-variant:normal;font-weight:normal;font-stretch:normal;font-size:medium;line-height:1;font-family:Gubbi;-inkscape-font-specification:Gubbi;letter-spacing:0px;word-spacing:0px;fill:#000000;fill-opacity:1;stroke:none;stroke-width:0.08265348"
       d="m -39.253772,129.56194 v 0.28089 q -0.125917,-0.0646 -0.26152,-0.0969 -0.135604,-0.0323 -0.280893,-0.0323 -0.221163,0 -0.332551,0.0678 -0.109775,0.0678 -0.109775,0.2034 0,0.10332 0.0791,0.16305 0.0791,0.0581 0.318023,0.11139 l 0.101702,0.0226 q 0.316408,0.0678 0.448783,0.1921 0.133989,0.12269 0.133989,0.34385 0,0.25184 -0.200177,0.39874 -0.198561,0.14691 -0.547256,0.14691 -0.145289,0 -0.303493,-0.0291 -0.15659,-0.0275 -0.330937,-0.084 v -0.30672 q 0.164661,0.0856 0.324479,0.12915 0.159819,0.042 0.316408,0.042 0.209862,0 0.322865,-0.071 0.113003,-0.0727 0.113003,-0.20341 0,-0.12107 -0.08233,-0.18564 -0.08072,-0.0646 -0.356766,-0.12431 l -0.103317,-0.0242 q -0.27605,-0.0581 -0.398739,-0.17758 -0.122689,-0.12107 -0.122689,-0.33093 0,-0.25507 0.180805,-0.3939 0.180804,-0.13883 0.513355,-0.13883 0.164662,0 0.309951,0.0242 0.14529,0.0242 0.267978,0.0726 z" />
  </g>
</svg>
